<?xml version="1.0" standalone="no"?>
<!DOCTYPE svg PUBLIC "-//W3C//DTD SVG 20010904//EN"
 "http://www.w3.org/TR/2001/REC-SVG-20010904/DTD/svg10.dtd">
<svg version="1.0" xmlns="http://www.w3.org/2000/svg"
 width="800.000000pt" height="800.000000pt" viewBox="0 0 800.000000 800.000000"
 preserveAspectRatio="xMidYMid meet">

<g transform="translate(0.000000,800.000000) scale(0.100000,-0.100000)"
fill="#000000" stroke="none">
<path d="M116 7931 c7 -67 6 -69 -17 -74 l-24 -4 23 -8 c25 -8 27 -33 13 -178
-5 -58 -3 -81 6 -89 21 -17 45 -1 39 24 -3 13 -3 17 0 10 3 -6 10 -10 14 -7 5
3 5 -8 0 -23 -4 -16 -6 -40 -3 -54 3 -14 -1 -29 -10 -36 -8 -7 -13 -22 -10
-32 3 -11 0 -20 -6 -20 -6 0 -11 17 -11 40 0 22 -4 40 -10 40 -5 0 -10 -15
-10 -32 0 -18 -2 -52 -6 -75 l-6 -42 29 8 c22 6 27 13 26 32 -3 22 -2 22 6 4
5 -11 7 -34 5 -50 -20 -141 -11 -200 17 -111 11 33 22 62 25 65 4 3 4 -27 1
-68 -4 -47 -2 -82 5 -95 12 -22 17 -73 22 -246 5 -134 5 -134 12 -127 3 3 8
32 10 63 3 32 7 60 9 63 13 13 19 -20 22 -122 4 -122 -6 -158 -32 -123 -14 18
-15 14 -15 -46 0 -37 -3 -69 -8 -72 -4 -2 -7 -24 -6 -48 2 -47 -12 -122 -27
-151 -10 -17 -11 -52 -9 -204 1 -61 -11 -86 -32 -65 -16 16 -19 167 -6 255 9
59 9 80 0 89 -9 9 -12 5 -13 -17 0 -29 -17 -80 -19 -60 0 6 -7 2 -15 -9 -13
-18 -14 -17 -20 5 -3 13 -1 51 4 84 5 34 9 47 10 30 3 -59 20 -2 19 62 -1 65
-8 74 -41 49 -13 -10 -17 -28 -17 -80 0 -37 -7 -83 -15 -103 -13 -31 -13 -44
-3 -90 14 -59 24 -68 31 -25 3 21 4 19 6 -12 1 -30 -2 -37 -14 -32 -16 6 -18
-5 -9 -41 8 -29 25 -30 21 -2 -2 25 18 37 26 16 7 -19 -4 -108 -13 -102 -5 3
-11 -1 -14 -7 -3 -7 -4 -1 -1 14 3 15 0 30 -6 34 -23 14 -34 -19 -36 -104 -3
-114 -4 -122 -20 -122 -18 0 -16 -40 4 -62 15 -17 15 -19 0 -36 -18 -20 -22
-42 -8 -42 17 0 22 -34 7 -46 -13 -9 -16 -39 -16 -183 0 -107 4 -171 10 -171
6 0 10 -9 10 -20 0 -11 -6 -20 -12 -20 -9 0 -9 -3 1 -9 18 -11 19 -167 2 -184
-7 -7 -11 -59 -11 -135 0 -111 2 -123 16 -118 14 5 16 1 11 -30 -4 -21 -12
-41 -19 -45 -10 -6 -8 -12 7 -23 19 -13 19 -15 2 -21 -19 -8 -24 -54 -6 -72 7
-7 7 -22 -1 -49 -7 -25 -10 -81 -6 -154 3 -63 5 -124 4 -135 0 -11 -2 -669 -4
-1461 l-4 -1442 22 -6 c13 -3 44 -6 70 -6 25 0 90 -9 145 -21 101 -21 116 -23
318 -58 66 -12 145 -27 175 -35 95 -25 183 -37 357 -51 92 -8 220 -23 283 -35
108 -20 118 -21 166 -6 28 9 74 16 102 16 58 0 57 3 53 -110 -2 -54 9 -74 37
-66 22 7 36 55 21 70 -12 13 -12 46 0 46 5 0 11 -8 14 -17 4 -10 13 -36 22
-58 9 -22 23 -60 32 -85 19 -56 142 -260 192 -320 21 -25 44 -56 51 -70 16
-32 139 -153 205 -202 119 -89 159 -110 320 -172 181 -69 228 -77 451 -77 174
1 202 3 291 26 54 14 125 37 158 51 33 14 69 29 80 34 11 5 36 13 55 20 19 6
51 21 70 34 99 64 127 82 148 91 56 25 351 304 352 332 0 6 8 18 18 25 10 7
51 59 92 116 40 57 82 108 93 114 21 11 326 6 452 -8 33 -3 155 2 270 11 116
10 269 21 340 26 305 20 355 26 373 42 26 23 64 21 98 -5 25 -20 41 -23 124
-24 103 -2 131 -9 170 -46 37 -35 131 -103 167 -122 18 -9 54 -16 80 -16 64
-1 95 -24 95 -73 0 -37 -44 -127 -62 -127 -5 0 -24 -29 -42 -65 -18 -36 -39
-78 -47 -93 -8 -15 -28 -49 -46 -77 -18 -27 -38 -68 -45 -90 -19 -58 -58 -153
-88 -210 -29 -56 -34 -67 -53 -110 -7 -17 -15 -33 -17 -37 -2 -5 115 -8 260
-8 l264 0 59 58 c33 33 67 74 76 93 20 43 40 104 32 95 -7 -7 -22 42 -44 139
-6 28 -16 56 -22 63 -9 12 -29 80 -48 170 -5 24 -17 55 -27 70 -11 15 -22 43
-25 62 -3 20 -19 58 -35 85 -23 37 -32 67 -36 116 -7 77 -13 99 -35 116 -13
10 -13 14 -3 21 19 13 24 182 6 189 -8 3 -14 10 -14 16 0 7 4 7 12 -1 7 -7 15
-12 19 -12 14 0 20 39 10 59 -9 15 -6 28 10 55 12 20 18 36 14 36 -4 0 -2 7 5
15 7 9 13 56 15 124 2 60 8 124 13 143 35 114 41 143 32 152 -7 7 -10 4 -10
-7 0 -9 -4 -17 -9 -17 -19 0 -30 143 -11 155 6 3 10 32 10 63 0 32 7 65 14 75
11 14 11 25 3 46 -8 22 -6 35 7 62 9 19 19 63 22 99 5 60 29 130 47 138 4 2 7
19 7 39 0 19 7 41 15 49 8 9 15 29 15 45 0 16 4 29 8 29 4 0 16 21 25 48 19
51 23 152 7 152 -5 0 -10 5 -10 11 0 5 4 8 10 4 5 -3 16 8 24 24 9 16 21 32
28 34 10 4 10 8 -1 15 -10 7 -12 22 -8 54 3 24 2 50 -3 58 -8 13 -10 12 -10
-3 0 -10 -6 -28 -12 -40 -31 -54 -46 -124 -44 -210 1 -81 -4 -104 -18 -74 -3
6 -3 -7 0 -30 6 -45 -1 -54 -21 -26 -11 14 -13 11 -19 -22 -4 -22 -16 -55 -25
-75 -21 -41 -42 -118 -39 -140 4 -23 -13 -104 -24 -117 -6 -7 -12 -30 -13 -52
-4 -47 -31 -91 -56 -91 -21 0 -24 -11 -8 -27 8 -8 8 -21 1 -45 -12 -37 -51
-198 -59 -240 -6 -32 -33 -60 -33 -34 0 9 -7 16 -16 16 -9 0 -12 5 -8 12 4 7
3 8 -4 4 -7 -4 -12 -16 -12 -26 0 -10 -4 -22 -10 -25 -5 -3 -10 -20 -9 -38 0
-18 -3 -45 -7 -60 -6 -25 -4 -28 12 -25 14 2 18 10 16 31 -3 22 1 27 17 27 25
0 29 -31 7 -49 -12 -10 -12 -17 -1 -44 13 -32 7 -69 -14 -82 -6 -3 -11 -17
-11 -30 0 -13 -4 -27 -10 -30 -6 -3 -10 -16 -10 -28 0 -12 -7 -31 -15 -41 -8
-11 -15 -34 -15 -50 0 -17 -4 -38 -10 -46 -5 -9 -5 -19 2 -27 8 -10 6 -13 -6
-13 -9 0 -16 5 -16 10 0 6 -6 10 -14 10 -7 0 -26 16 -40 35 -28 36 -28 75 1
103 16 16 17 29 3 37 -5 3 -11 16 -11 28 -1 17 -3 15 -9 -8 l-8 -30 -1 30 c-1
39 15 66 28 46 5 -8 11 -9 15 -3 3 6 2 12 -4 14 -6 2 -2 19 10 43 22 43 25 65
10 65 -5 0 -10 5 -10 11 0 6 6 9 14 6 15 -6 30 18 21 33 -3 4 0 30 5 56 6 27
12 61 15 77 2 15 9 35 15 45 8 13 9 8 7 -25 -5 -53 9 -46 24 12 6 25 17 50 25
56 18 15 18 33 -2 50 -13 10 -17 10 -25 -2 -16 -26 -9 1 10 39 10 20 22 67 26
105 5 43 12 67 20 67 8 0 10 9 8 24 -3 13 2 48 11 78 8 29 20 96 27 148 6 52
15 99 20 105 5 5 9 21 9 36 0 15 4 31 10 34 6 3 10 19 10 34 0 15 3 31 7 35 5
4 13 29 20 54 7 26 24 88 38 137 14 50 30 108 36 130 6 21 14 44 18 50 4 5 16
39 26 75 9 36 21 70 26 76 15 18 27 104 19 132 -6 24 -9 21 -24 -33 -10 -33
-26 -83 -37 -110 -10 -28 -19 -57 -19 -66 0 -8 -9 -35 -21 -58 -11 -24 -18
-49 -15 -57 3 -8 1 -27 -6 -42 -56 -141 -79 -222 -132 -462 -28 -126 -49 -195
-67 -222 -11 -14 -19 -38 -19 -52 0 -14 -4 -26 -10 -26 -5 0 -10 -13 -10 -30
0 -16 -4 -30 -10 -30 -9 0 -14 21 -11 42 0 4 -4 19 -9 33 -8 21 -7 27 8 32 18
7 42 28 42 37 0 8 -34 -6 -42 -18 -5 -7 -8 -7 -8 2 0 6 -9 12 -21 12 -15 0
-19 5 -15 18 9 28 11 120 3 129 -4 4 -16 2 -26 -4 -16 -10 -19 -9 -23 10 -9
51 15 78 31 35 9 -22 9 -22 16 -3 4 11 18 43 30 70 15 33 25 80 29 140 4 49
11 94 16 99 5 5 6 22 3 38 -5 24 -3 29 11 26 13 -2 21 8 31 37 24 75 25 100 5
115 -17 12 -17 15 -2 38 12 19 13 28 4 43 -7 10 -12 31 -12 46 0 37 30 102 51
108 9 3 16 16 17 30 0 30 -14 33 -21 5 -7 -27 -47 -27 -47 0 0 11 -7 20 -15
20 -8 0 -15 -7 -15 -15 0 -8 -9 -15 -20 -15 -24 0 -27 32 -5 50 14 12 14 15 0
30 -10 11 -12 19 -4 27 8 8 8 13 0 17 -16 10 34 134 64 158 14 11 25 30 25 44
0 27 -14 31 -36 9 -9 -8 -20 -15 -25 -15 -14 0 -11 36 5 50 8 6 17 21 19 33 3
14 5 9 6 -13 l1 -35 15 29 c8 15 15 39 15 53 0 16 7 27 20 30 18 5 19 14 19
149 -1 137 -9 175 -30 143 -5 -8 -9 -28 -9 -46 0 -17 -4 -35 -10 -38 -5 -3
-10 -19 -10 -36 0 -16 -5 -29 -11 -29 -6 0 -8 -9 -4 -20 4 -11 2 -20 -4 -20
-6 0 -11 8 -11 18 0 10 -6 26 -14 37 -18 26 -19 135 -1 185 7 21 11 48 8 60
-4 13 0 25 8 30 9 6 14 34 15 93 0 46 4 89 8 96 5 7 2 26 -4 42 -13 30 -9 164
7 233 5 24 3 28 -10 23 -19 -7 -28 14 -22 51 11 68 17 150 15 182 -2 19 -4 61
-4 93 0 31 -3 57 -7 57 -4 0 -1 13 7 30 12 23 14 44 8 87 -4 32 -7 66 -5 76 2
14 -3 18 -20 15 -12 -2 -24 3 -26 10 -3 6 2 12 11 12 13 0 16 10 15 48 -1 45
-1 45 -9 14 -8 -36 -20 -54 -20 -31 0 8 -11 -8 -25 -36 -20 -40 -24 -66 -25
-131 0 -86 -5 -101 -28 -82 -11 10 -17 9 -27 -5 -21 -28 -51 -28 -79 0 -21 21
-26 35 -26 78 0 38 -4 55 -15 59 -19 7 -19 50 0 66 9 7 18 10 22 7 9 -10 33
13 33 32 0 16 33 43 47 39 5 -2 6 -51 4 -109 -3 -115 2 -149 25 -149 11 0 14
20 15 98 1 53 3 131 5 172 7 155 15 447 14 507 -1 62 11 86 33 64 20 -20 27
-12 27 29 0 43 -16 53 -29 18 -20 -55 -25 4 -31 366 0 14 -3 17 -10 10 -6 -6
-12 -71 -14 -145 -2 -74 -5 -146 -5 -160 -1 -15 -14 -41 -30 -58 -29 -31 -41
-31 -41 0 0 9 -5 19 -11 21 -7 2 -7 12 0 31 11 28 7 31 -31 28 -22 -3 -23 22
-2 40 8 7 13 21 11 30 -3 10 2 27 10 39 9 12 12 25 7 29 -5 3 -16 20 -23 36
l-14 30 -6 -30 c-5 -24 -12 -31 -34 -33 -26 -3 -28 -1 -27 25 4 52 0 83 -10
83 -5 0 -12 -11 -16 -25 -3 -14 -11 -25 -16 -25 -6 0 -7 8 -3 18 4 9 9 26 11
37 3 12 2 14 -2 5 -4 -8 -16 -25 -27 -37 -19 -22 -21 -22 -33 -5 -7 10 -20 56
-29 103 -8 46 -20 109 -26 141 -11 54 -10 57 15 85 14 15 26 31 26 35 0 17
-46 7 -58 -12 -23 -38 -34 -23 -28 38 4 31 8 68 9 81 1 18 -6 29 -31 43 -36
20 -61 16 -41 -8 6 -8 8 -18 4 -22 -4 -4 -14 3 -22 16 -9 12 -23 22 -31 22
-12 0 -13 -3 -4 -12 13 -13 16 -28 5 -28 -13 0 -33 52 -33 83 0 16 -4 26 -10
22 -5 -3 -19 -1 -30 5 -16 9 -22 8 -26 -5 -4 -8 0 -23 7 -32 13 -15 9 -16 -46
-11 -74 7 -115 25 -115 51 0 11 -9 21 -20 24 -15 4 -19 11 -15 24 5 14 2 17
-8 13 -7 -2 -20 2 -27 11 -7 8 -20 15 -30 15 -22 0 -63 80 -54 104 4 9 0 31
-9 49 -8 18 -22 55 -30 82 -11 38 -15 43 -16 23 -1 -15 -5 -29 -11 -33 -13 -8
-49 16 -43 30 6 17 -27 28 -43 14 -21 -17 -61 14 -73 57 -5 20 -8 64 -5 97 3
43 1 56 -5 42 -5 -11 -10 -32 -10 -47 -1 -16 -12 -37 -27 -52 l-27 -24 -22 22
c-12 12 -27 31 -33 41 -10 18 -11 17 -12 -12 0 -31 -2 -33 -37 -33 -47 1 -86
26 -63 40 11 7 7 9 -15 7 -27 -2 -30 1 -33 31 -4 35 -22 45 -22 12 0 -13 -7
-20 -19 -20 -22 0 -35 30 -26 59 3 11 6 71 6 133 1 138 1 138 -10 138 -8 0
-28 -248 -22 -279 1 -7 -2 -10 -8 -7 -11 7 -34 -28 -24 -38 3 -3 -4 -6 -17 -6
-12 0 -28 8 -35 17 -10 13 -25 16 -65 14 -33 -2 -50 1 -46 7 3 6 2 21 -3 35
-6 16 -6 28 1 35 6 6 8 33 3 72 -8 68 -16 72 -20 9 -2 -26 -11 -48 -24 -60
-18 -17 -26 -44 -22 -71 2 -13 -23 -9 -46 7 -16 12 -22 12 -26 2 -3 -6 -6 0
-6 16 -1 18 -6 27 -18 27 -9 0 -36 21 -59 46 -29 30 -45 41 -48 32 -14 -42
-14 -43 -15 -25 -1 9 -6 17 -12 17 -5 0 -7 -4 -4 -10 3 -5 -1 -10 -9 -10 -9 0
-16 7 -16 15 0 21 -29 19 -37 -2 -17 -46 -81 -51 -116 -10 -16 21 -18 21 -28
5 -6 -11 -22 -18 -39 -18 -25 0 -30 4 -30 25 0 18 -4 23 -15 19 -8 -4 -15 -1
-15 5 0 6 7 11 15 11 8 0 15 5 15 11 0 6 -6 9 -12 6 -7 -2 -23 0 -35 4 -19 7
-23 3 -33 -27 -7 -19 -23 -47 -36 -63 -24 -29 -25 -29 -76 -17 -37 9 -52 17
-49 27 2 8 3 26 3 41 -1 21 3 25 15 21 13 -5 15 -3 8 13 -14 33 -17 81 -6 88
14 9 15 96 1 96 -5 0 -10 7 -10 15 0 9 6 12 18 9 15 -5 15 -5 0 5 -10 7 -14
19 -11 33 9 36 -11 11 -24 -30 l-11 -37 1 35 c0 19 -5 45 -12 58 -17 31 -7 52
23 52 32 0 38 11 23 44 -12 26 -13 26 -124 26 -66 0 -113 -4 -113 -10 0 -5 10
-19 23 -30 l22 -21 -24 -20 c-13 -10 -17 -19 -10 -19 10 0 10 -3 2 -11 -6 -6
-9 -18 -6 -25 3 -8 -2 -17 -11 -20 -10 -4 -15 -16 -14 -33 1 -15 -2 -33 -7
-40 -12 -20 -35 13 -27 41 3 15 1 19 -9 16 -17 -6 -23 -48 -14 -105 7 -49 25
-49 25 1 0 22 5 33 14 33 18 0 25 -29 20 -87 -1 -25 -3 -60 -3 -78 -1 -46 -22
-37 -42 19 l-17 44 -10 -39 c-8 -26 -8 -45 -1 -57 5 -11 6 -19 2 -19 -5 0 -17
-13 -26 -30 -10 -16 -23 -30 -29 -30 -6 0 -18 -9 -27 -19 -26 -30 -97 -32
-104 -3 -3 10 -5 6 -6 -11 -1 -25 -3 -26 -21 -15 -12 8 -20 24 -20 40 0 16 -4
28 -10 28 -5 0 -10 -15 -10 -33 0 -46 -18 -67 -52 -60 -16 3 -28 10 -28 15 0
5 -4 6 -10 3 -5 -3 -10 -14 -10 -24 0 -10 -6 -18 -13 -18 -7 0 -26 -8 -42 -19
l-29 -19 26 -3 c15 -2 36 1 46 7 17 9 19 6 20 -18 0 -24 -4 -30 -26 -34 -15
-3 -31 -1 -36 4 -6 5 -18 9 -27 9 -12 0 -16 6 -12 18 4 16 -3 18 -49 17 l-53
0 3 34 c5 49 -15 30 -23 -22 -5 -34 -14 -47 -41 -65 -44 -29 -50 -28 -66 8 -7
17 -16 30 -20 30 -5 0 -8 5 -8 11 0 5 -14 28 -32 50 -25 31 -29 42 -19 48 11
7 11 9 0 14 -11 4 -12 7 -1 18 16 17 15 24 -4 43 -8 9 -15 24 -15 33 1 10 1
40 1 67 0 28 7 59 16 73 8 14 13 31 10 38 -6 17 11 116 30 167 7 20 10 52 7
72 l-6 36 -82 0 c-77 0 -83 -1 -89 -22 -6 -22 -7 -22 -20 -5 -20 25 -40 22
-31 -5 7 -20 10 -48 14 -135 1 -16 7 -23 21 -23 18 0 20 -4 13 -42 -9 -49 -8
-156 2 -369 5 -104 4 -148 -4 -153 -6 -4 -11 0 -11 9 0 9 -5 13 -11 9 -6 -3
-15 0 -20 7 -7 11 -9 10 -9 -3 0 -17 -19 -26 -21 -10 0 4 -2 15 -4 26 -2 10 1
29 6 43 5 14 5 31 0 40 -5 9 -5 29 0 45 6 23 4 31 -11 40 -16 10 -17 15 -6 37
7 14 14 69 15 121 1 52 4 148 6 214 2 65 1 132 -2 147 l-5 29 -83 0 c-67 0
-84 -3 -89 -16 -4 -9 -2 -22 4 -29 8 -9 8 -15 0 -20 -6 -3 -8 -11 -4 -16 3 -5
0 -16 -6 -24 -9 -11 -9 -26 0 -64 6 -28 10 -80 8 -115 -1 -36 1 -66 6 -66 5 0
11 39 13 86 3 48 11 115 18 148 l13 61 1 -113 c0 -62 3 -118 7 -124 4 -7 3 -8
-4 -4 -18 11 -33 -29 -22 -59 5 -14 10 -46 10 -71 0 -24 5 -44 10 -44 6 0 11
32 11 73 1 71 2 71 9 22 4 -27 6 -65 4 -82 -1 -18 2 -30 7 -27 5 3 10 20 10
37 l2 32 6 -35 c4 -19 3 -48 -3 -64 -8 -27 -10 -28 -17 -10 -8 21 -9 20 -13
-14 -2 -13 1 -25 4 -27 4 -3 6 -60 4 -127 -3 -102 -7 -125 -21 -135 -21 -16
-58 -17 -85 -2 -16 8 -29 7 -59 -7 -22 -9 -39 -21 -39 -25 0 -8 -48 -59 -55
-59 -3 0 -5 9 -5 19 0 24 -18 37 -32 23 -6 -6 -6 -12 1 -16 14 -9 14 -36 1
-36 -5 0 -10 7 -10 15 0 8 -5 15 -11 15 -6 0 -9 -8 -7 -17 2 -10 -7 -30 -21
-44 -15 -14 -27 -32 -29 -39 -4 -17 -58 -70 -72 -70 -6 0 -8 -5 -5 -10 10 -16
-5 -50 -22 -50 -8 0 -17 9 -20 20 -14 52 -43 3 -43 -72 0 -17 -4 -27 -10 -23
-6 4 -10 -15 -10 -49 0 -31 -4 -56 -10 -56 -5 0 -10 8 -11 18 0 10 -6 4 -15
-15 -8 -18 -19 -33 -25 -33 -5 0 -8 4 -4 9 3 5 1 12 -4 15 -13 8 -21 -30 -21
-103 0 -64 0 -64 -19 -43 -29 35 -70 27 -50 -10 5 -10 15 -16 22 -13 7 3 2 -2
-10 -11 -13 -9 -23 -27 -23 -40 0 -19 5 -24 26 -24 14 0 23 4 19 9 -3 5 0 13
6 16 18 12 23 -4 8 -32 -11 -20 -11 -27 -1 -30 16 -6 15 -52 -3 -86 -8 -16
-16 -58 -17 -93 l-3 -65 -42 -12 c-24 -6 -43 -15 -43 -19 0 -4 -6 -8 -13 -8
-15 0 -57 -45 -57 -60 0 -13 17 -13 25 0 4 6 16 8 27 4 16 -5 20 -3 15 9 -7
17 37 41 70 38 12 -1 31 3 42 9 17 8 21 8 21 -3 0 -8 -7 -20 -15 -27 -10 -8
-15 -9 -15 -2 0 6 -7 9 -15 6 -17 -7 -10 -24 10 -24 8 0 26 -11 41 -25 23 -22
26 -29 16 -49 -6 -13 -7 -27 -2 -32 10 -12 0 -125 -11 -118 -5 3 -10 -28 -10
-68 -1 -40 -3 -82 -4 -93 -7 -66 -18 -120 -30 -148 -7 -18 -10 -47 -8 -65 5
-33 5 -34 -28 -30 -32 3 -34 1 -34 -30 0 -18 -5 -36 -12 -40 -18 -11 -36 -127
-30 -193 4 -42 1 -63 -8 -73 -7 -7 -16 -35 -20 -62 -10 -72 -13 -79 -30 -64
-8 6 -14 24 -14 38 0 15 0 89 0 165 0 77 4 149 8 160 5 12 9 24 9 27 0 24 25
90 33 90 6 0 9 -6 6 -13 -3 -8 -1 -20 4 -28 13 -22 31 3 33 45 1 33 -1 36 -24
35 -41 -3 -60 0 -60 11 0 6 11 10 24 10 23 0 24 3 34 123 24 263 25 276 11
293 -9 11 -9 18 -2 22 6 4 14 21 17 39 8 36 -10 55 -29 30 -15 -21 -25 -22
-25 -2 0 8 -4 15 -8 15 -16 0 -7 -40 10 -46 42 -13 10 -38 -65 -49 -56 -9 -54
-5 -67 -160 -13 -161 -19 -185 -41 -185 -14 0 -19 7 -20 28 0 24 -1 25 -9 7
-16 -36 -11 -67 10 -72 26 -7 26 -19 -1 -26 -19 -5 -20 -11 -15 -54 9 -64 14
-277 8 -309 -2 -14 -9 -23 -15 -21 -13 4 -29 57 -17 57 17 0 20 53 9 142 -7
51 -13 131 -14 178 -3 70 -6 86 -20 88 -12 3 -15 10 -11 28 4 14 2 24 -4 24
-5 0 -10 -6 -11 -12 0 -7 -3 -43 -7 -80 -5 -37 -4 -64 0 -62 4 3 8 -16 8 -43
l0 -48 -16 30 c-9 17 -16 44 -16 61 0 17 -4 37 -10 45 -6 9 -8 -17 -4 -80 3
-52 9 -97 15 -100 10 -6 12 -62 8 -196 -2 -60 -5 -70 -19 -69 -19 2 -24 -16
-9 -32 4 -5 11 -22 15 -38 6 -24 4 -27 -9 -22 -9 3 -19 6 -21 6 -2 0 -4 7 -4
15 0 8 -7 15 -16 15 -13 0 -15 10 -10 63 5 50 3 58 -6 42 -6 -11 -17 -24 -25
-30 -11 -8 -10 -15 2 -38 10 -19 13 -48 10 -90 -2 -34 -5 -64 -5 -67 0 -2 -6
4 -14 15 -13 19 -34 264 -33 373 1 24 -3 46 -9 50 -17 12 -34 77 -34 128 0 28
-4 54 -8 60 -5 5 -19 33 -31 62 -17 41 -20 57 -11 67 7 8 8 20 4 26 -4 7 -6
65 -5 129 2 117 -4 174 -19 165 -7 -4 -17 105 -19 215 -1 66 -3 80 -11 80 -4
0 -10 27 -13 60 -3 34 -10 66 -15 73 -10 13 -9 181 2 208 4 9 2 36 -5 60 -6
24 -14 75 -19 112 -5 44 -13 74 -25 85 -17 16 -17 14 -11 -38 14 -106 16 -169
6 -175 -7 -4 -7 -13 0 -25 7 -14 7 -25 -2 -39 -9 -15 -9 -23 2 -36 8 -9 15
-40 17 -68 1 -29 4 -65 5 -82 2 -24 -1 -29 -14 -27 -26 4 -23 -35 3 -48 13 -7
18 -17 15 -27 -4 -9 -2 -21 3 -27 14 -18 18 -201 4 -201 -23 0 -26 -15 -10
-57 23 -64 30 -105 18 -113 -16 -9 -13 -46 4 -59 12 -9 13 -28 4 -121 -6 -72
-6 -134 0 -180 6 -38 13 -106 16 -150 8 -105 13 -145 24 -230 5 -38 11 -97 12
-130 1 -33 6 -79 12 -102 9 -36 13 -40 29 -32 15 8 18 6 18 -13 0 -13 4 -30
10 -38 6 -9 5 -17 -3 -22 -9 -6 -8 -11 3 -19 12 -8 10 -9 -7 -4 -28 8 -28 6
-8 -110 9 -48 16 -107 17 -131 1 -24 6 -44 11 -44 6 0 7 -16 4 -35 -3 -20 2
-61 13 -98 10 -37 14 -70 10 -77 -5 -8 -7 -45 -4 -84 5 -84 -5 -109 -34 -83
-23 21 -42 22 -42 2 0 -8 -4 -15 -10 -15 -5 0 -10 7 -10 15 0 8 5 15 10 15 6
0 10 6 10 14 0 8 -8 13 -17 12 -14 -1 -17 5 -15 25 2 17 -3 29 -12 32 -9 4
-16 13 -16 22 0 8 -4 15 -10 15 -5 0 -7 -7 -4 -15 4 -8 2 -15 -4 -15 -5 0 -9
26 -8 60 1 33 6 60 11 60 6 0 10 -4 10 -9 0 -21 13 -19 25 4 12 22 11 26 -11
44 -22 18 -24 18 -27 3 -1 -9 -14 -22 -28 -29 -24 -11 -24 -11 -20 35 2 26 5
55 5 65 1 10 5 16 10 13 10 -6 21 61 13 82 -2 6 -10 12 -18 12 -8 0 -14 8 -15
18 0 15 -2 14 -9 -3 -6 -14 -7 -6 -3 23 4 28 2 42 -6 42 -6 0 -11 15 -11 34 0
19 -4 38 -10 41 -6 3 -10 36 -10 73 0 48 -6 78 -20 105 -11 20 -20 45 -19 54
0 11 3 13 6 5 11 -27 23 3 23 59 0 58 -19 86 -21 32 -1 -16 -5 4 -9 42 -4 39
-4 77 1 85 5 10 8 11 9 3 0 -18 20 -16 20 1 0 8 -8 17 -18 21 -20 6 -18 -15
-48 440 -7 103 -13 225 -14 249 0 11 -3 16 -7 12 -5 -4 -9 -110 -10 -234 0
-125 -1 -243 -2 -262 0 -19 2 -44 4 -55 3 -11 2 -14 -1 -7 -10 21 -24 2 -24
-33 0 -26 -3 -33 -15 -29 -8 4 -15 1 -15 -6 0 -6 -4 -8 -10 -5 -17 10 -12 96
7 117 14 16 15 23 5 38 -7 12 -12 60 -12 122 -1 77 -5 111 -18 136 -21 40 -32
41 -32 3 0 -17 -5 -33 -10 -36 -6 -4 -10 11 -10 38 0 35 -5 48 -22 60 -18 13
-20 18 -9 25 8 6 11 17 6 31 -5 16 -1 23 19 31 28 10 32 20 14 38 -8 8 -8 15
1 26 6 7 11 18 10 22 -1 5 -1 18 0 28 1 26 18 9 24 -24 3 -19 5 -15 6 12 1 40
-14 89 -31 99 -5 4 -11 20 -13 37 -1 17 -7 37 -13 44 -14 18 -34 131 -23 137
4 3 5 15 0 26 -7 18 -8 18 -8 2 -1 -10 -6 -28 -12 -39 -18 -34 -29 -2 -29 87
0 44 -7 115 -15 158 -11 60 -12 88 -4 128 8 36 8 63 0 94 -6 24 -11 77 -11
117 0 91 -16 236 -28 252 -5 6 -12 43 -15 83 -4 55 -2 74 9 83 11 10 16 8 23
-11 9 -22 10 -22 12 -4 2 29 -2 59 -10 65 -6 5 -12 116 -10 175 1 17 2 40 1
53 0 12 4 22 10 22 5 0 9 21 8 48 -4 104 0 177 9 163 7 -11 11 -9 20 8 9 16 9
21 0 19 -18 -4 -30 52 -19 92 17 60 17 60 -70 60 -73 0 -80 -2 -80 -19 0 -11
-4 -23 -10 -26 -6 -4 -10 5 -10 19 0 25 -2 26 -69 26 -57 0 -70 -3 -73 -17 -3
-16 -4 -16 -20 0 -11 12 -33 17 -72 17 l-56 0 6 -69z m152 -28 c17 -31 15 -68
-7 -104 -10 -17 -16 -39 -14 -50 3 -10 0 -19 -6 -19 -5 0 -8 -7 -5 -15 4 -8
10 -12 15 -9 5 3 9 -4 9 -15 0 -12 -4 -21 -10 -21 -5 0 -10 5 -10 10 0 6 -9
10 -20 10 -24 0 -27 35 -6 59 8 9 17 35 21 59 6 36 4 41 -9 36 -12 -5 -16 0
-16 19 0 29 26 56 33 35 2 -7 3 -7 2 2 -2 8 -6 24 -11 35 -7 18 -6 18 7 5 9
-9 21 -25 27 -37z m-121 -100 c-3 -10 -5 -4 -5 12 0 17 2 24 5 18 2 -7 2 -21
0 -30z m283 18 c0 -22 -16 -36 -24 -22 -8 12 3 41 15 41 5 0 9 -9 9 -19z
m-223 -53 c-3 -8 -6 -5 -6 6 -1 11 2 17 5 13 3 -3 4 -12 1 -19z m163 -58 c0
-5 -2 -10 -4 -10 -3 0 -8 5 -11 10 -3 6 -1 10 4 10 6 0 11 -4 11 -10z m-144
-47 c14 -23 9 -232 -6 -247 -8 -8 -13 -7 -20 4 -13 20 -12 64 1 77 7 7 7 23
-1 54 -7 24 -8 45 -3 46 5 2 7 21 5 43 -4 42 6 52 24 23z m155 -123 c-4 -23
-5 -23 -12 -5 -4 11 -8 32 -8 48 -1 15 -5 27 -11 27 -5 0 -10 15 -9 33 0 27 2
29 9 12 8 -19 9 -19 17 5 6 20 9 14 13 -35 3 -33 4 -71 1 -85z m3269 68 c0 -5
-4 -8 -10 -8 -5 0 -10 10 -10 23 0 18 2 19 10 7 5 -8 10 -18 10 -22z m-3300
-53 c0 -8 -4 -15 -10 -15 -5 0 -10 7 -10 15 0 8 5 15 10 15 6 0 10 -7 10 -15z
m78 -179 c-4 -6 -7 37 -6 95 l2 104 6 -95 c3 -52 2 -99 -2 -104z m-58 99 c0
-8 -4 -15 -8 -15 -5 0 -9 -14 -10 -31 0 -18 -6 -37 -12 -43 -8 -8 -10 -4 -5
15 4 16 2 30 -4 34 -7 4 -5 14 6 30 21 28 33 32 33 10z m4250 -19 c0 -2 -7 -6
-15 -10 -8 -3 -15 -1 -15 4 0 6 7 10 15 10 8 0 15 -2 15 -4z m-4493 -48 c-3
-8 -6 -5 -6 6 -1 11 2 17 5 13 3 -3 4 -12 1 -19z m93 -39 c0 -11 -4 -17 -10
-14 -5 3 -10 15 -10 26 0 11 5 17 10 14 6 -3 10 -15 10 -26z m3019 2 c9 -6 4
-10 -18 -13 -21 -3 -31 0 -31 9 0 15 28 17 49 4z m1461 5 c0 -3 -4 -8 -10 -11
-5 -3 -10 -1 -10 4 0 6 5 11 10 11 6 0 10 -2 10 -4z m-4180 -31 c0 -14 -4 -25
-10 -25 -5 0 -10 4 -10 9 0 5 -3 16 -6 25 -4 11 -1 16 10 16 10 0 16 -9 16
-25z m2268 -31 c12 -4 22 -13 22 -20 0 -8 5 -14 10 -14 6 0 10 -4 10 -10 0
-18 -19 -11 -50 20 -32 31 -31 34 8 24z m-2361 -116 c-3 -8 -6 -5 -6 6 -1 11
2 17 5 13 3 -3 4 -12 1 -19z m-100 -60 c-3 -8 -6 -5 -6 6 -1 11 2 17 5 13 3
-3 4 -12 1 -19z m1973 -54 c0 -9 -5 -14 -12 -12 -18 6 -21 28 -4 28 9 0 16 -7
16 -16z m-1960 -43 c0 -6 -4 -13 -10 -16 -5 -3 -10 1 -10 9 0 9 5 16 10 16 6
0 10 -4 10 -9z m99 -58 c0 -34 -3 -50 -7 -40 -7 17 -4 97 4 97 2 0 4 -26 3
-57z m-92 -495 c-3 -8 -6 -5 -6 6 -1 11 2 17 5 13 3 -3 4 -12 1 -19z m-85
-110 c-2 -21 -8 -38 -13 -38 -5 0 -7 6 -5 13 3 6 7 25 11 41 8 39 13 29 7 -16z
m68 -80 c0 -16 -3 -19 -11 -11 -6 6 -8 16 -5 22 11 17 16 13 16 -11z m-60 2
c0 -5 -7 -10 -15 -10 -8 0 -15 5 -15 10 0 6 7 10 15 10 8 0 15 -4 15 -10z
m-20 -60 c0 -5 -5 -10 -11 -10 -5 0 -7 5 -4 10 3 6 8 10 11 10 2 0 4 -4 4 -10z
m363 -132 c-6 -29 -7 -30 -14 -10 -5 12 -6 37 -2 54 6 29 7 30 14 10 5 -12 6
-37 2 -54z m5577 53 c0 -12 -20 -25 -27 -18 -7 7 6 27 18 27 5 0 9 -4 9 -9z
m-5880 -103 c0 -19 -2 -20 -10 -8 -13 19 -13 30 0 30 6 0 10 -10 10 -22z m370
-8 c0 -5 -5 -10 -11 -10 -5 0 -7 5 -4 10 3 6 8 10 11 10 2 0 4 -4 4 -10z
m5560 -52 c0 -5 -4 -8 -10 -8 -5 0 -10 10 -10 23 0 18 2 19 10 7 5 -8 10 -18
10 -22z m100 -42 c0 -3 -4 -8 -10 -11 -5 -3 -10 -1 -10 4 0 6 5 11 10 11 6 0
10 -2 10 -4z m-6272 -61 c0 -13 -4 -22 -9 -20 -9 6 -8 45 2 45 4 0 7 -11 7
-25z m92 -11 c0 -8 -5 -12 -10 -9 -6 4 -8 11 -5 16 9 14 15 11 15 -7z m1420
-3 c0 -5 12 -11 28 -13 26 -3 27 -5 29 -68 2 -72 -19 -118 -46 -101 -20 13
-29 130 -11 141 9 6 7 11 -9 19 -24 13 -28 31 -6 31 8 0 15 -4 15 -9z m405 -1
c3 -5 -1 -10 -9 -10 -9 0 -16 5 -16 10 0 6 4 10 9 10 6 0 13 -4 16 -10z m-45
-19 c5 -11 10 -27 10 -37 0 -9 8 -23 18 -30 14 -10 17 -27 15 -99 -1 -48 -6
-92 -12 -98 -6 -6 -11 -35 -11 -64 0 -29 -4 -53 -10 -53 -5 0 -10 7 -10 15 0
8 -4 15 -9 15 -4 0 -6 -11 -3 -25 2 -14 0 -31 -6 -38 -5 -6 -6 -21 -2 -32 6
-17 8 -16 14 12 14 62 25 43 25 -42 -1 -62 -4 -88 -14 -91 -7 -3 -11 -14 -8
-24 4 -14 -2 -21 -23 -26 -24 -6 -25 -8 -11 -19 10 -7 17 -18 18 -26 1 -8 5
-3 9 11 7 21 8 19 9 -17 1 -23 -3 -44 -8 -48 -6 -3 -10 -25 -10 -48 -1 -70 -2
-78 -10 -73 -8 5 -15 -76 -13 -149 1 -30 -1 -36 -8 -24 -5 9 -23 22 -40 29
-16 7 -31 18 -32 24 -5 37 -4 66 2 66 4 0 6 53 6 118 -1 138 4 213 16 228 5 6
11 56 14 110 3 55 6 105 6 112 1 6 7 12 15 12 9 0 13 11 11 35 -1 19 1 37 5
41 12 12 37 -5 31 -21 -3 -8 -1 -15 5 -15 6 0 11 16 11 35 0 28 -4 35 -20 35
-22 0 -26 10 -9 27 8 8 5 14 -11 23 -18 10 -21 17 -16 45 4 19 13 47 21 62 8
15 12 36 9 46 -7 23 13 22 26 -2z m1858 -18 c6 -15 12 -32 12 -39 0 -8 14 -10
44 -7 51 6 147 -32 139 -54 -3 -8 -2 -13 3 -12 5 1 17 -1 27 -6 11 -5 24 -2
36 9 17 15 20 14 46 -10 20 -18 31 -22 38 -15 6 6 23 11 38 11 15 0 31 5 34
10 11 17 39 11 67 -15 15 -14 31 -25 36 -25 6 0 12 -7 16 -15 3 -8 11 -12 19
-9 8 3 19 -2 26 -10 7 -8 18 -13 25 -10 19 7 96 -35 96 -52 0 -8 -4 -14 -10
-14 -5 0 -10 -4 -10 -10 0 -5 11 -10 24 -10 14 0 28 -4 31 -10 11 -17 23 -11
18 9 -3 14 2 20 21 23 28 6 36 -6 11 -16 -25 -9 -17 -26 13 -26 16 0 36 -8 45
-18 19 -21 13 -32 -15 -32 -10 0 -18 -7 -18 -15 0 -17 11 -19 25 -6 6 4 24 11
41 14 26 5 33 2 44 -19 7 -13 20 -24 28 -24 9 0 24 -8 34 -17 16 -14 65 -23
132 -24 21 0 101 -67 101 -84 0 -5 9 -10 20 -11 11 0 42 -21 69 -47 27 -26 53
-47 58 -47 4 0 8 -6 8 -14 0 -8 13 -27 28 -43 35 -35 55 -70 47 -83 -3 -6 -18
-10 -33 -10 -15 0 -34 -5 -42 -10 -12 -7 -8 -12 20 -23 35 -15 65 -9 101 20
17 14 33 18 25 5 -2 -4 -1 -14 4 -22 7 -12 12 -12 22 -2 13 13 54 16 61 5 3
-5 0 -34 -5 -66 -9 -50 -13 -58 -29 -54 -28 8 -23 -18 9 -44 17 -14 22 -23 15
-26 -7 -3 -13 -10 -13 -16 0 -7 -9 -18 -21 -25 -16 -10 -20 -20 -15 -40 3 -15
9 -37 11 -50 4 -15 2 -21 -5 -17 -5 3 -30 3 -54 0 l-44 -7 15 -51 c8 -28 12
-63 9 -79 -4 -21 -2 -28 9 -28 8 0 15 -5 15 -11 0 -5 -4 -7 -10 -4 -13 8 -13
-1 1 -26 5 -11 12 -51 14 -89 2 -55 0 -68 -11 -63 -8 3 -14 0 -14 -6 0 -6 7
-11 16 -11 9 0 18 -9 21 -20 3 -10 14 -22 24 -25 14 -5 19 -16 19 -41 0 -28
-5 -36 -25 -44 -29 -11 -30 -16 -10 -37 10 -10 12 -19 6 -27 -5 -6 -11 -24
-13 -41 l-3 -30 -78 78 c-75 75 -80 78 -120 76 -23 -1 -46 -5 -51 -7 -5 -3
-131 -6 -279 -8 -256 -2 -271 -3 -298 -23 -36 -27 -37 -26 -49 5 -9 22 -15 25
-38 20 -51 -12 -137 -49 -177 -77 -24 -16 -50 -26 -65 -24 -14 1 -33 3 -43 4
-9 0 -25 11 -35 23 -9 11 -32 38 -49 58 -18 21 -33 40 -33 42 0 15 -86 91
-134 118 -31 18 -59 36 -62 41 -3 5 -9 7 -14 4 -4 -3 -13 2 -20 10 -7 8 -23
15 -36 15 -14 0 -55 14 -92 31 -37 18 -80 37 -97 44 -16 7 -42 18 -56 25 -14
6 -36 13 -50 15 -48 8 -84 17 -104 25 -11 5 -32 11 -46 14 -14 3 -43 20 -65
37 -32 25 -45 30 -74 25 -19 -4 -47 -7 -62 -9 -16 -1 -28 -5 -28 -8 0 -4 -26
-10 -57 -14 -32 -4 -66 -11 -76 -17 -10 -5 -44 -13 -75 -18 -92 -15 -170 -43
-176 -62 -3 -13 -14 -18 -41 -18 -32 0 -36 -2 -30 -20 4 -13 2 -20 -7 -21 -27
-3 -34 -4 -65 -18 -38 -16 -41 -26 -12 -42 17 -9 20 -16 14 -42 -12 -54 -6
-141 10 -153 8 -6 15 -15 15 -20 0 -5 21 -29 46 -54 46 -44 47 -45 132 -50
l85 -5 25 -45 c14 -25 28 -47 31 -50 3 -3 7 -22 8 -42 1 -31 -2 -38 -17 -38
-22 0 -31 -12 -22 -27 4 -6 27 -20 52 -33 54 -27 81 -50 74 -61 -3 -5 -10 -7
-15 -4 -5 4 -9 1 -9 -5 0 -6 11 -15 25 -20 14 -5 25 -14 25 -20 0 -5 8 -10 19
-10 10 0 58 -20 106 -45 78 -41 99 -47 184 -55 82 -8 98 -7 107 6 9 11 48 17
165 24 85 5 169 12 187 15 28 5 34 3 39 -14 3 -12 12 -21 20 -21 9 0 12 6 9
18 -5 14 3 22 28 35 31 14 96 92 96 115 0 19 52 44 79 38 14 -4 52 -8 83 -10
31 -2 61 -7 66 -10 5 -3 24 -47 41 -98 44 -127 51 -152 51 -172 0 -17 30 -66
58 -95 8 -8 50 -27 95 -42 45 -15 76 -28 70 -29 -16 0 -17 -26 -3 -35 6 -4 18
-1 26 6 11 9 22 8 52 -5 53 -24 177 -26 222 -4 19 9 60 27 90 38 36 14 73 40
108 75 49 50 96 73 108 54 11 -19 63 -9 89 17 21 20 29 23 40 14 8 -6 19 -9
25 -5 18 11 11 25 -12 25 -20 1 -21 2 -6 11 10 5 29 7 43 3 22 -5 25 -12 25
-48 0 -45 -33 -247 -50 -311 -16 -58 -68 -221 -91 -285 -22 -59 -31 -80 -78
-179 -17 -34 -31 -67 -31 -73 0 -18 -61 -98 -75 -98 -8 0 -22 -16 -31 -35 -19
-41 -90 -115 -111 -115 -8 0 -11 -4 -8 -10 3 -5 2 -10 -3 -10 -6 0 -13 7 -16
16 -8 20 -25 9 -37 -23 -13 -34 -17 -26 -11 20 2 22 10 37 17 37 20 0 55 49
55 76 0 17 -10 29 -37 42 -80 40 -104 58 -125 100 -13 23 -26 42 -29 42 -4 0
-12 19 -18 43 -6 24 -20 56 -31 70 -12 15 -19 31 -16 36 3 4 -3 18 -14 31 -10
12 -17 27 -14 35 3 7 -2 15 -10 18 -10 4 -16 19 -16 39 -1 18 -6 42 -13 54
-18 31 -110 134 -119 134 -15 0 4 -73 26 -103 17 -23 20 -44 21 -141 1 -62 5
-118 9 -124 10 -16 -14 -59 -40 -71 -13 -6 -24 -15 -24 -21 0 -16 -46 -12 -60
5 -7 8 -18 15 -25 15 -14 0 -25 22 -25 51 0 18 -15 24 -50 19 -8 -1 -37 -16
-65 -33 -43 -26 -60 -31 -120 -33 -69 -1 -115 14 -115 39 0 11 -26 36 -91 88
-32 26 -70 43 -139 62 -53 15 -102 27 -109 27 -7 0 -42 14 -78 30 -61 28 -118
42 -84 21 8 -5 15 -18 16 -29 1 -17 -5 -19 -71 -18 -40 1 -70 4 -67 9 6 10
-21 9 -32 -2 -13 -12 -43 -18 -45 -9 -1 14 -51 58 -65 58 -22 0 -18 12 13 40
51 48 59 52 81 41 16 -9 21 -7 26 9 3 11 4 24 0 30 -3 6 1 7 9 4 9 -3 16 -11
16 -18 0 -6 5 -4 10 4 7 11 10 6 11 -20 0 -19 3 -29 6 -22 7 18 34 15 31 -5
-2 -10 6 -19 22 -23 l25 -7 0 144 c0 108 3 143 13 143 6 0 12 2 12 4 0 2 3 11
6 19 4 12 -2 13 -39 6 -51 -9 -141 -61 -174 -99 -24 -29 -69 -53 -128 -69 -23
-6 -55 -24 -72 -41 -39 -38 -100 -80 -116 -80 -7 0 -17 -4 -22 -9 -6 -5 -26
-13 -45 -18 -24 -6 -36 -16 -38 -30 -2 -13 -13 -24 -28 -27 -13 -4 -24 -13
-24 -21 0 -8 -9 -15 -20 -15 -11 0 -20 -6 -20 -14 0 -34 -56 -27 -98 12 -15
14 -32 8 -32 -12 0 -7 -11 -18 -24 -24 -14 -6 -31 -28 -41 -55 -20 -54 -55
-71 -56 -29 0 15 -3 21 -6 15 -8 -21 -23 -15 -23 10 0 13 -4 27 -9 33 -5 5
-11 20 -13 34 -2 21 -8 24 -30 22 -20 -3 -28 1 -28 12 0 9 5 16 11 16 6 0 9 6
6 13 -2 6 -10 12 -19 12 -22 0 -45 27 -53 63 -4 18 -18 40 -31 48 -13 9 -29
34 -36 58 -7 22 -15 43 -18 46 -14 12 -32 92 -27 119 4 19 2 31 -4 31 -6 0 -9
6 -6 14 3 7 -2 24 -10 36 -15 21 -15 24 -1 34 12 9 15 34 13 136 -2 141 -2
140 -14 121 -6 -9 -11 0 -16 30 -4 24 -10 48 -13 53 -14 23 -7 244 9 321 23
108 46 187 64 221 8 16 17 49 21 74 4 25 11 50 16 57 11 13 46 143 58 211 4
24 12 48 18 54 7 7 12 36 12 66 0 43 6 62 30 97 17 24 30 49 30 55 0 16 51 61
88 76 17 8 32 19 32 24 0 6 11 15 25 20 14 5 28 17 31 25 8 20 54 20 54 -1 0
-14 2 -14 15 0 9 8 38 18 66 22 27 4 52 11 55 16 4 6 10 5 14 -3 7 -10 12 -10
23 -1 8 7 22 10 31 6 9 -3 16 -1 16 5 0 8 5 8 18 0 26 -16 112 -3 112 17 0 8
7 17 15 20 9 4 15 11 14 18 -1 6 1 19 6 29 4 10 2 23 -5 32 -6 7 -10 24 -9 37
2 13 0 29 -5 36 -4 7 -2 19 4 27 10 12 9 16 -4 21 -15 6 -15 9 5 30 12 13 19
29 16 37 -3 8 0 20 6 26 9 9 8 15 -6 22 -15 9 -16 13 -5 26 10 13 10 17 1 20
-7 3 -13 11 -13 18 0 7 -7 16 -16 19 -15 6 -15 8 0 25 9 10 18 38 20 62 2 42
13 78 25 89 4 3 19 22 34 43 23 30 34 37 63 37 21 0 37 -6 40 -14 8 -22 34 -7
31 17 -1 17 3 21 19 19 11 -1 32 2 46 7 19 7 31 6 45 -4 24 -17 115 -14 137 4
8 7 23 11 33 8 13 -3 11 -5 -7 -6 -24 -2 -24 -2 -6 -16 22 -17 62 -20 71 -6 3
5 21 7 40 4 19 -3 42 -2 52 2 10 4 36 9 58 10 22 2 44 11 50 19 16 25 49 19
63 -11z m-398 7 c0 -5 -4 -10 -10 -10 -5 0 -10 5 -10 10 0 6 5 10 10 10 6 0
10 -4 10 -10z m-3343 -32 c-3 -8 -6 -5 -6 6 -1 11 2 17 5 13 3 -3 4 -12 1 -19z
m100 -25 c-3 -10 -5 -2 -5 17 0 19 2 27 5 18 2 -10 2 -26 0 -35z m20 -15 c-3
-8 -6 -5 -6 6 -1 11 2 17 5 13 3 -3 4 -12 1 -19z m6156 -55 c-2 -21 -5 -56 -7
-78 -4 -71 -16 -105 -37 -105 -17 0 -18 3 -9 21 6 11 13 50 14 87 3 69 20 127
34 118 5 -3 7 -22 5 -43z m-6156 -40 c-3 -10 -5 -2 -5 17 0 19 2 27 5 18 2
-10 2 -26 0 -35z m508 -194 c0 -54 -4 -79 -12 -79 -8 0 -10 16 -6 54 4 34 2
56 -6 60 -6 4 -14 0 -17 -8 -7 -18 -24 -22 -24 -5 0 13 53 68 60 62 3 -2 5
-40 5 -84z m365 35 c0 -14 -4 -23 -9 -20 -5 3 -7 15 -4 26 7 28 13 25 13 -6z
m5260 -138 c-8 -8 -15 -6 -26 8 -20 27 -18 49 9 89 l22 34 3 -60 c2 -35 -2
-65 -8 -71z m-1540 99 c0 -8 9 -15 20 -15 11 0 20 -4 20 -9 0 -20 -18 -20 -40
-1 -13 11 -27 20 -32 20 -4 0 -8 5 -8 10 0 6 9 10 20 10 11 0 20 -7 20 -15z
m-4720 -20 c0 -8 -4 -15 -10 -15 -5 0 -10 7 -10 15 0 8 5 15 10 15 6 0 10 -7
10 -15z m60 -70 c0 -8 -7 -15 -15 -15 -16 0 -20 12 -8 23 11 12 23 8 23 -8z
m1250 0 c0 -8 -4 -15 -10 -15 -5 0 -10 7 -10 15 0 8 5 15 10 15 6 0 10 -7 10
-15z m-683 -57 c-3 -7 -5 -2 -5 12 0 14 2 19 5 13 2 -7 2 -19 0 -25z m5583 28
c0 -11 -19 -15 -25 -6 -3 5 1 10 9 10 9 0 16 -2 16 -4z m60 -6 c0 -5 -5 -10
-11 -10 -5 0 -7 5 -4 10 3 6 8 10 11 10 2 0 4 -4 4 -10z m-3693 -27 c-9 -9
-20 -13 -24 -9 -4 4 -1 11 7 16 25 16 35 11 17 -7z m-1831 -27 c-3 -13 -3 -39
1 -58 l7 -33 8 30 c6 26 6 25 2 -5 -16 -103 -19 -257 -5 -274 13 -16 1 -127
-14 -127 -14 0 -24 67 -30 191 -3 58 -7 110 -9 116 -3 6 -1 28 4 47 5 26 4 42
-6 54 -15 20 -19 57 -5 49 4 -3 16 3 26 14 24 26 28 25 21 -4z m5434 4 c16 0
-2 -38 -21 -43 -16 -4 -19 0 -19 25 0 23 4 29 16 24 9 -3 19 -6 24 -6z m-5540
-65 c0 -19 -20 -29 -32 -17 -8 8 -7 16 2 26 14 17 30 12 30 -9z m-613 -17 c-3
-7 -5 -2 -5 12 0 14 2 19 5 13 2 -7 2 -19 0 -25z m1456 -40 l-7 -43 -8 45 c-4
25 -5 52 -2 60 11 30 25 -17 17 -62z m1247 68 c0 -3 -4 -8 -10 -11 -5 -3 -10
-1 -10 4 0 6 5 11 10 11 6 0 10 -2 10 -4z m-1380 -22 c0 -8 -4 -12 -10 -9 -5
3 -10 10 -10 16 0 5 5 9 10 9 6 0 10 -7 10 -16z m-715 -113 l-7 -26 -13 25
c-19 33 -19 60 0 60 8 0 16 6 16 13 1 6 4 -1 6 -17 3 -15 2 -40 -2 -55z m427
32 c4 -17 -7 -144 -11 -133 -1 3 -3 28 -5 55 -2 28 -6 60 -11 73 -5 16 -4 22
8 22 8 0 17 -8 19 -17z m-1050 -15 c6 -18 -23 -148 -33 -148 -14 0 -20 39 -10
59 6 11 11 31 11 45 0 45 21 74 32 44z m6365 -50 c-2 -13 -4 -5 -4 17 -1 22 1
32 4 23 2 -10 2 -28 0 -40z m-6249 17 c-3 -3 -9 2 -12 12 -6 14 -5 15 5 6 7
-7 10 -15 7 -18z m5882 -11 c0 -8 -4 -12 -10 -9 -5 3 -10 10 -10 16 0 5 5 9
10 9 6 0 10 -7 10 -16z m80 2 c0 -16 -28 -42 -36 -33 -3 3 -3 15 1 26 7 23 35
29 35 7z m-5965 -112 c-3 -35 -11 -64 -16 -64 -13 0 -11 107 3 133 17 32 21 7
13 -69z m6045 25 c0 -5 -7 -9 -15 -9 -8 0 -15 7 -15 15 0 9 6 12 15 9 8 -4 15
-10 15 -15z m-134 -14 c-3 -9 -11 -13 -16 -10 -8 5 -7 11 1 21 14 18 24 11 15
-11z m27 -10 c-7 -21 -13 -19 -13 6 0 11 4 18 10 14 5 -3 7 -12 3 -20z m191
-17 c11 -57 7 -108 -9 -108 -8 0 -15 -7 -15 -15 0 -8 -7 -15 -15 -15 -8 0 -15
8 -15 18 0 10 -5 23 -10 30 -6 6 -8 10 -5 8 8 -5 65 50 65 63 0 8 -6 8 -19 -1
-15 -9 -23 -9 -35 1 -9 8 -16 18 -16 24 0 6 3 7 7 4 3 -4 12 2 20 13 18 26 39
16 47 -22z m-4987 -10 c-3 -23 -1 -50 4 -61 13 -23 3 -55 -12 -40 -15 15 -22
98 -10 122 18 33 24 25 18 -21z m4873 24 c0 -14 -11 -21 -26 -15 -21 8 -17 23
6 23 11 0 20 -4 20 -8z m196 -43 c14 -16 15 -23 7 -26 -7 -3 -13 -16 -13 -29
0 -21 -18 -36 -21 -16 -7 51 -7 92 0 92 4 0 16 -10 27 -21z m-4449 -66 c1 -74
1 -77 -13 -50 -8 15 -12 33 -8 39 4 7 7 29 5 50 -1 21 2 38 7 38 5 0 9 -35 9
-77z m4269 50 c-10 -10 -19 5 -10 18 6 11 8 11 12 0 2 -7 1 -15 -2 -18z m-32
-22 c-6 -6 -24 19 -24 34 1 6 7 1 15 -9 8 -11 12 -22 9 -25z m-4939 19 c3 -5
1 -10 -4 -10 -6 0 -11 5 -11 10 0 6 2 10 4 10 3 0 8 -4 11 -10z m528 -21 c26
-7 41 -18 48 -36 5 -14 21 -39 34 -55 14 -16 25 -36 25 -44 0 -8 4 -14 8 -14
14 0 34 -92 22 -104 -5 -5 -10 -7 -10 -3 0 4 -9 -1 -21 -12 -18 -16 -19 -24
-10 -52 21 -72 43 -125 58 -141 22 -25 10 -46 -33 -54 -21 -4 -38 -14 -41 -23
-2 -9 -19 -27 -38 -39 -46 -32 -65 -77 -65 -156 0 -53 4 -70 20 -86 11 -11 20
-22 20 -25 0 -3 11 -23 25 -45 24 -38 27 -40 65 -34 31 5 41 3 46 -9 3 -9 -1
-24 -10 -32 -9 -9 -16 -29 -16 -45 0 -15 -6 -30 -13 -33 -31 -12 -62 -128 -41
-150 10 -9 45 18 58 45 13 26 42 32 40 8 -3 -28 -13 -70 -19 -80 -10 -16 11
-12 50 10 20 11 39 20 43 20 11 0 -14 -183 -28 -211 -30 -57 -89 -78 -166 -61
-100 22 -150 135 -109 247 19 53 19 137 0 182 -8 19 -15 44 -15 54 0 11 -4 27
-9 37 -14 26 -30 117 -36 209 -4 46 -15 113 -26 150 -29 100 -49 203 -49 248
0 22 -4 54 -9 71 -15 53 27 234 55 234 8 0 14 4 14 8 0 10 48 30 75 31 11 0
37 -4 58 -10z m4667 1 c0 -5 -2 -10 -4 -10 -3 0 -8 5 -11 10 -3 6 -1 10 4 10
6 0 11 -4 11 -10z m-251 -110 c6 0 11 -13 11 -28 0 -26 2 -28 34 -24 28 3 35
0 41 -17 8 -27 25 -27 25 0 0 11 -14 32 -30 46 -36 30 -31 43 18 43 29 0 34
-3 22 -11 -11 -8 -12 -12 -2 -16 18 -7 16 -93 -3 -93 -8 0 -15 -5 -15 -11 0
-6 7 -17 15 -25 19 -20 20 -105 0 -159 -12 -35 -12 -41 1 -52 13 -10 14 -20 4
-67 -12 -57 -30 -85 -30 -46 0 12 -4 18 -10 15 -13 -8 -13 -65 -1 -65 5 0 12
6 14 13 3 6 6 -3 6 -20 1 -23 -4 -33 -14 -33 -10 0 -15 -10 -15 -29 0 -16 -6
-34 -14 -40 -8 -7 -17 -23 -21 -38 -10 -43 -17 -19 -20 78 -3 62 0 98 8 107
12 16 13 91 2 210 -8 84 -25 97 -25 18 0 -30 -4 -57 -9 -61 -5 -3 -10 -45 -11
-93 -1 -119 -8 -335 -16 -462 -3 -58 -7 -139 -9 -180 -2 -41 -8 -95 -13 -120
-5 -25 -10 -76 -11 -115 -2 -47 -7 -75 -18 -85 -13 -13 -14 -10 -9 30 3 25 6
51 5 58 0 18 0 60 1 75 0 6 -2 28 -5 47 -11 80 -7 310 6 326 10 13 10 19 0 36
-7 12 -12 52 -12 99 0 43 -4 81 -9 84 -6 3 -10 17 -10 31 0 15 -4 23 -11 19
-6 -4 -8 -14 -5 -22 4 -9 -1 -17 -14 -20 -17 -5 -20 -11 -14 -42 3 -20 8 -44
11 -53 3 -12 -1 -18 -11 -18 -15 0 -23 43 -17 88 1 8 -5 19 -15 26 -16 12 -20
45 -16 136 0 19 1 76 1 125 -1 159 8 262 27 289 12 20 14 29 5 40 -9 11 1 14
56 19 42 3 69 10 72 18 3 9 9 6 22 -9 9 -12 22 -22 28 -22z m-5025 4 c10 -26
7 -44 -8 -44 -13 0 -28 45 -18 55 10 9 20 5 26 -11z m5226 1 c0 -13 -4 -14
-20 -5 -11 6 -20 13 -20 15 0 3 9 5 20 5 11 0 20 -7 20 -15z m-5683 -32 c-3
-10 -5 -4 -5 12 0 17 2 24 5 18 2 -7 2 -21 0 -30z m133 19 c0 -13 -12 -22 -22
-16 -10 6 -1 24 13 24 5 0 9 -4 9 -8z m5560 -22 c0 -5 -4 -10 -10 -10 -5 0
-10 5 -10 10 0 6 5 10 10 10 6 0 10 -4 10 -10z m-4850 -25 c0 -8 -4 -15 -10
-15 -5 0 -7 7 -4 15 4 8 8 15 10 15 2 0 4 -7 4 -15z m4834 -33 c-2 -44 -3 -47
-13 -36 -8 8 -15 46 -12 66 1 4 7 5 14 2 7 -2 12 -17 11 -32z m-436 -119 c2
-160 -5 -220 -29 -244 -17 -17 -17 -19 -1 -29 15 -9 15 -10 -5 -16 -24 -7 -29
-31 -14 -69 5 -11 5 -25 0 -31 -6 -7 -3 -35 5 -70 8 -33 17 -80 21 -105 5 -40
3 -47 -13 -51 -16 -5 -20 -18 -26 -79 -3 -41 -8 -94 -11 -118 -3 -27 -1 -47 5
-51 6 -4 11 -30 12 -58 0 -29 3 -52 6 -52 4 0 7 -41 7 -90 0 -49 3 -90 8 -90
13 0 7 -23 -9 -35 -12 -8 -16 -28 -16 -72 0 -34 3 -66 6 -72 4 -6 0 -26 -9
-44 -9 -19 -18 -59 -20 -91 -5 -67 -9 -76 -37 -76 -18 0 -20 4 -14 38 4 20 6
102 5 182 -2 80 -2 161 -2 180 6 187 7 198 20 193 18 -7 17 51 -2 80 -10 16
-15 56 -17 127 -3 98 -2 105 17 108 30 6 40 19 26 36 -9 11 -9 15 1 19 7 3 3
6 -9 6 -32 1 -43 29 -41 104 1 50 -2 69 -16 82 -13 14 -17 31 -14 69 2 28 7
54 12 57 4 4 3 10 -3 13 -6 4 -11 2 -11 -3 0 -6 -5 -11 -11 -11 -8 0 -10 17
-6 55 4 39 2 55 -6 55 -8 0 -12 -17 -10 -47 1 -27 -1 -37 -4 -23 -3 14 -9 30
-13 35 -4 6 -10 21 -12 35 -2 20 2 26 20 28 16 3 22 8 18 19 -8 21 11 52 40
63 16 6 24 17 24 33 0 29 23 62 38 54 5 -4 8 -17 4 -30 -5 -19 -3 -20 10 -9
10 8 14 21 10 34 -4 15 -2 19 7 14 8 -5 14 0 18 13 3 12 10 21 15 21 5 0 6 9
3 20 -4 13 -2 20 7 20 11 0 14 -28 16 -127z m-3991 35 c-3 -8 -6 -5 -6 6 -1
11 2 17 5 13 3 -3 4 -12 1 -19z m4520 -40 c-2 -13 -4 -3 -4 22 0 25 2 35 4 23
2 -13 2 -33 0 -45z m-110 20 c-3 -8 -6 -5 -6 6 -1 11 2 17 5 13 3 -3 4 -12 1
-19z m-1007 -8 c0 -5 -4 -10 -10 -10 -5 0 -10 5 -10 10 0 6 5 10 10 10 6 0 10
-4 10 -10z m-4392 -67 c0 -30 -2 -34 -8 -18 -11 26 -12 55 -2 55 5 0 9 -17 10
-37z m520 -59 c-1 -36 -5 -67 -8 -69 -14 -9 -27 116 -14 136 13 22 22 -6 22
-67z m4232 27 c0 -5 -7 -11 -15 -15 -9 -3 -15 0 -15 9 0 8 7 15 15 15 8 0 15
-4 15 -9z m-5613 -53 c7 -60 7 -73 -1 -96 -6 -19 -4 -24 14 -29 19 -5 21 -12
18 -62 -3 -50 -5 -56 -27 -59 -19 -3 -22 0 -17 13 3 10 1 25 -6 33 -10 12 -10
14 -1 8 18 -10 17 34 -2 70 -14 27 -13 108 1 153 7 21 17 6 21 -31z m1954 11
c7 -14 10 -83 7 -210 -3 -168 -5 -190 -22 -206 -13 -13 -20 -15 -23 -5 -3 6
-9 10 -14 7 -5 -4 -6 2 -2 11 4 12 2 15 -8 12 -23 -8 -22 -36 1 -93 35 -86 20
-101 -21 -20 -29 56 -41 72 -66 79 -45 14 -58 47 -31 82 12 14 35 32 53 39 17
8 48 29 70 49 21 19 42 33 47 30 4 -3 8 4 8 15 0 11 -5 23 -11 27 -6 3 -9 19
-5 35 3 15 1 31 -4 34 -6 3 -10 11 -10 16 0 6 4 8 9 4 18 -10 20 11 6 51 -8
21 -14 45 -15 52 0 19 18 14 31 -9z m3529 -34 c0 -8 -4 -15 -10 -15 -5 0 -10
7 -10 15 0 8 5 15 10 15 6 0 10 -7 10 -15z m877 -27 c-3 -7 -5 -2 -5 12 0 14
2 19 5 13 2 -7 2 -19 0 -25z m-852 13 c3 -5 1 -12 -5 -16 -5 -3 -10 1 -10 9 0
18 6 21 15 7z m-5478 -33 c-3 -7 -5 -2 -5 12 0 14 2 19 5 13 2 -7 2 -19 0 -25z
m859 -24 c-11 -28 -28 -1 -20 32 7 27 8 28 17 7 5 -12 7 -30 3 -39z m4458 -56
c-1 -60 -5 -83 -18 -96 -16 -16 -17 -14 -10 27 5 32 4 42 -5 37 -6 -4 -8 -13
-5 -19 4 -7 0 -5 -8 3 -20 19 -31 67 -18 75 5 3 10 15 10 26 0 11 5 29 10 40
10 18 12 18 28 2 13 -13 17 -34 16 -95z m239 75 c4 -21 2 -42 -3 -47 -9 -9
-17 4 -21 34 -6 58 15 69 24 13z m-2757 1 c14 -8 35 -11 57 -7 35 5 51 -4 39
-24 -15 -23 -94 -15 -137 13 -11 8 -30 14 -43 14 -21 0 -23 2 -12 15 15 18 60
13 96 -11z m-1946 -70 c0 -8 -4 -12 -10 -9 -5 3 -10 10 -10 16 0 5 5 9 10 9 6
0 10 -7 10 -16z m478 -54 c-1 -43 -18 -37 -18 6 0 19 4 33 9 29 5 -3 9 -19 9
-35z m4275 -3 c-9 -15 -21 4 -15 25 5 21 6 21 12 2 4 -10 5 -22 3 -27z m-4742
16 c1 -17 2 -17 6 0 2 9 8 17 13 17 10 0 23 -50 15 -58 -3 -3 -5 2 -5 12 0 10
-5 14 -11 11 -5 -4 -9 -17 -8 -28 0 -12 1 -31 0 -42 -1 -16 -3 -17 -10 -5 -13
24 -22 110 -11 110 6 0 11 -8 11 -17z m49 -74 c0 -5 -4 -9 -10 -9 -5 0 -10 7
-10 16 0 8 5 12 10 9 6 -3 10 -10 10 -16z m5240 -25 c0 -21 -4 -33 -10 -29
-17 10 -11 65 7 65 2 0 3 -16 3 -36z m-6176 1 c-4 -8 -8 -15 -10 -15 -2 0 -4
7 -4 15 0 8 4 15 10 15 5 0 7 -7 4 -15z m993 -9 c10 -10 -6 -36 -20 -30 -17 6
-41 -21 -32 -36 3 -5 0 -10 -7 -10 -9 0 -12 13 -10 45 4 45 5 46 34 41 16 -2
32 -7 35 -10z m65 -16 c-5 -33 -13 -37 -32 -15 -9 11 -9 17 2 29 21 25 35 19
30 -14z m2028 -56 c0 -34 3 -76 6 -93 7 -31 6 -32 -22 -25 -60 15 -171 108
-162 135 6 17 94 45 140 45 l38 -1 0 -61z m3063 19 c4 -18 3 -33 -2 -33 -12 0
-21 26 -21 58 0 34 15 17 23 -25z m-206 -5 c-3 -7 -5 -2 -5 12 0 14 2 19 5 13
2 -7 2 -19 0 -25z m173 -23 c0 -8 -4 -15 -10 -15 -5 0 -10 7 -10 15 0 8 5 15
10 15 6 0 10 -7 10 -15z m-726 -36 c28 -33 32 -62 15 -106 -16 -39 -26 -65
-35 -88 -15 -40 -15 11 -1 54 13 37 13 41 -2 41 -9 0 -34 -14 -56 -30 -34 -26
-40 -28 -48 -14 -11 19 -2 94 19 162 2 7 20 12 43 12 32 0 44 -6 65 -31z
m-5378 -32 c2 -14 -1 -29 -7 -32 -17 -11 -21 1 -14 35 8 35 14 34 21 -3z m-26
-64 c0 -24 -25 -9 -28 17 -3 21 -2 22 12 11 9 -7 16 -20 16 -28z m6130 -24 c0
-10 -4 -19 -10 -19 -5 0 -10 12 -10 26 0 14 4 23 10 19 6 -3 10 -15 10 -26z
m-204 -20 c-3 -17 -6 -41 -6 -53 -1 -20 -1 -20 -11 -3 -13 22 -3 87 13 87 6 0
8 -12 4 -31z m233 -83 c-9 -8 -10 -5 -5 14 3 14 7 41 8 60 1 27 3 23 5 -14 3
-30 0 -53 -8 -60z m-1049 90 c0 -2 3 -11 6 -20 5 -12 0 -16 -19 -16 -28 0 -42
14 -32 30 6 10 45 15 45 6z m730 -22 c0 -8 -6 -11 -15 -8 -8 4 -15 9 -15 13 0
4 7 8 15 8 8 0 15 -6 15 -13z m-1274 -105 c-3 -17 -6 -53 -6 -80 l0 -48 -42
18 c-24 10 -48 28 -55 41 -10 20 -8 28 10 51 21 27 56 47 86 48 10 1 12 -7 7
-30z m1344 -64 c-1 -34 -3 -45 -10 -35 -10 19 -8 113 2 97 4 -7 8 -34 8 -62z
m460 65 c0 -5 -4 -10 -10 -10 -5 0 -10 5 -10 10 0 6 5 10 10 10 6 0 10 -4 10
-10z m-1050 -55 c-7 -14 -19 -25 -26 -25 -8 0 -11 -6 -8 -14 3 -8 -3 -19 -16
-26 -11 -6 -18 -15 -16 -19 3 -5 -3 -16 -14 -26 -23 -21 -26 -9 -6 20 7 11 17
35 21 53 4 18 13 32 21 32 8 0 20 11 26 25 8 17 15 22 22 15 6 -6 5 -18 -4
-35z m1060 5 c0 -11 -7 -20 -15 -20 -8 0 -15 9 -15 20 0 11 7 20 15 20 8 0 15
-9 15 -20z m-470 -91 c0 -11 -4 -18 -10 -14 -5 3 -7 12 -3 20 7 21 13 19 13
-6z m-1355 -39 c3 -5 -1 -10 -9 -10 -9 0 -16 5 -16 10 0 6 4 10 9 10 6 0 13
-4 16 -10z m1350 -20 c3 -5 1 -20 -6 -32 -9 -16 -9 -23 0 -26 6 -2 11 -9 11
-16 0 -7 9 -22 20 -33 19 -21 19 -21 -2 -48 -19 -25 -20 -28 -5 -37 27 -14 21
-57 -8 -68 -18 -7 -25 -17 -25 -37 0 -34 20 -70 20 -38 0 11 4 27 10 35 13 21
11 -105 -3 -157 -24 -88 -59 -30 -44 71 7 43 6 75 -3 109 -7 26 -9 60 -5 75
12 44 16 84 16 150 0 57 9 77 24 52z m422 -61 c3 -18 -17 -49 -30 -49 -3 0 -7
12 -10 27 -3 18 0 31 11 39 20 14 25 11 29 -17z m13 -59 c0 -5 -5 -10 -11 -10
-5 0 -7 5 -4 10 3 6 8 10 11 10 2 0 4 -4 4 -10z m-337 -100 c-2 -51 -19 -56
-18 -5 0 26 4 43 10 41 6 -2 9 -18 8 -36z m367 -171 c0 -11 -4 -18 -10 -14 -5
3 -7 12 -3 20 7 21 13 19 13 -6z m-385 -210 c-3 -146 -7 -181 -19 -168 -5 5
-5 36 -1 196 2 93 8 133 18 133 3 0 3 -72 2 -161z m-155 145 c0 -14 -22 -44
-30 -39 -13 8 0 45 16 45 8 0 14 -3 14 -6z m59 -111 l-12 -28 -8 29 c-5 20 -4
35 3 44 18 22 30 -10 17 -45z m-2829 37 c-8 -5 -22 -9 -30 -9 -10 0 -8 3 5 9
27 12 43 12 25 0z m2714 -55 c-4 -16 1 -30 15 -44 12 -12 21 -31 21 -43 -1
-22 -1 -22 -14 -5 -11 14 -16 15 -22 6 -4 -7 -2 -15 4 -17 7 -2 10 -13 6 -27
-3 -13 -1 -32 5 -42 6 -11 11 -13 11 -5 0 24 20 1 20 -23 0 -13 4 -27 10 -30
10 -6 6 -107 -5 -137 -4 -10 -11 -18 -16 -18 -5 0 -9 8 -10 18 -2 28 -27 -60
-28 -97 -1 -25 2 -32 14 -27 20 7 53 -60 37 -76 -8 -8 -13 -7 -18 5 -3 9 -12
17 -19 17 -9 0 -12 -16 -11 -52 1 -35 -3 -52 -10 -51 -7 1 -20 -7 -29 -17 -16
-18 -10 -26 12 -17 8 3 31 -61 32 -90 1 -12 -5 -23 -11 -26 -7 -2 -10 -8 -6
-12 4 -4 14 -2 23 5 12 10 15 10 15 -1 0 -8 3 -32 6 -54 6 -33 4 -38 -7 -27
-18 17 -39 15 -39 -3 0 -8 7 -15 15 -15 10 0 15 -10 15 -30 0 -16 -4 -30 -10
-30 -14 0 -13 -26 2 -49 14 -24 -6 -161 -26 -176 -10 -8 -11 -16 -4 -29 15
-26 -5 -42 -26 -21 -17 17 -18 23 -22 125 -2 36 -3 65 -4 65 0 0 0 97 1 215 1
118 1 234 0 258 -1 23 6 58 14 78 18 45 18 44 0 44 -8 0 -15 7 -15 15 0 9 6
12 15 9 17 -7 20 7 5 22 -14 14 -23 64 -11 64 5 0 12 -6 14 -12 3 -7 6 -3 6 9
1 26 17 38 50 38 15 0 26 8 32 23 6 16 5 22 -6 22 -8 0 -15 -5 -15 -11 0 -16
-45 -6 -45 11 0 8 -3 20 -7 25 -10 16 -58 146 -58 156 0 5 9 9 20 9 26 0 56
66 39 86 -16 20 -2 36 22 24 14 -8 18 -17 13 -35z m-1397 3 c-3 -8 -6 -5 -6 6
-1 11 2 17 5 13 3 -3 4 -12 1 -19z m1998 -7 c3 -5 1 -12 -5 -16 -5 -3 -10 1
-10 9 0 18 6 21 15 7z m-479 -47 c2 -21 17 -44 25 -38 5 3 9 0 9 -5 0 -6 -7
-11 -16 -11 -13 0 -15 -8 -12 -42 3 -30 0 -46 -10 -54 -12 -8 -12 -15 -3 -32
8 -15 10 -47 5 -99 -5 -54 -4 -74 4 -69 21 13 35 -34 28 -95 -5 -39 -3 -59 4
-59 5 0 10 -4 10 -10 0 -5 -7 -10 -15 -10 -10 0 -15 -10 -15 -29 0 -17 -4 -33
-10 -36 -5 -3 -10 -20 -10 -36 0 -18 -4 -28 -10 -24 -5 3 -10 2 -10 -4 0 -5 6
-11 13 -13 17 -6 24 -188 7 -188 -8 0 -11 -23 -9 -75 2 -41 0 -77 -4 -81 -4
-4 -7 5 -7 19 0 15 -5 27 -12 27 -8 0 -9 49 -2 198 5 108 9 294 10 412 2 350
3 372 17 368 6 -3 12 -9 13 -14z m-271 -24 c-5 -8 -11 -8 -17 -2 -6 6 -7 16
-3 22 5 8 11 8 17 2 6 -6 7 -16 3 -22z m-45 -86 c0 -8 -5 -12 -10 -9 -6 4 -8
11 -5 16 9 14 15 11 15 -7z m-20 -64 c0 -13 -1 -13 -10 0 -5 8 -10 22 -10 30
0 13 1 13 10 0 5 -8 10 -22 10 -30z m47 -42 c-2 -18 -4 -6 -4 27 0 33 2 48 4
33 2 -15 2 -42 0 -60z m-4027 15 c0 -3 -11 -29 -25 -57 -15 -30 -27 -77 -31
-116 -9 -109 -8 -106 -55 -102 -58 6 -156 -17 -210 -48 -88 -53 -116 -62 -161
-57 -161 21 -153 21 -214 -12 -32 -17 -70 -31 -85 -31 -28 0 -86 -28 -156 -75
-35 -24 -40 -25 -229 -25 -118 0 -195 -4 -199 -10 -3 -5 -17 -10 -31 -10 -13
0 -32 -4 -42 -9 -40 -23 -154 -62 -160 -56 -8 8 45 52 73 61 11 4 37 21 57 38
40 35 125 66 178 66 57 0 163 21 206 41 22 10 49 19 60 19 27 0 39 10 58 48
20 38 67 62 121 62 37 0 82 19 124 51 15 12 40 19 70 19 37 0 57 8 104 39 32
22 79 47 105 55 26 9 69 27 96 41 27 14 64 25 83 25 18 0 66 9 106 19 39 11
88 21 107 24 19 2 38 5 43 5 4 1 7 -1 7 -5z m3990 -139 c0 -20 -21 -28 -31
-13 -5 8 -9 25 -9 38 0 23 1 24 20 6 11 -10 20 -24 20 -31z m49 -16 c1 -10 -3
-18 -9 -18 -5 0 -10 19 -9 43 1 36 2 38 9 17 4 -14 8 -33 9 -42z m181 -28 c0
-5 -2 -10 -4 -10 -3 0 -8 5 -11 10 -3 6 -1 10 4 10 6 0 11 -4 11 -10z m167
-42 c-2 -13 -4 -5 -4 17 -1 22 1 32 4 23 2 -10 2 -28 0 -40z m-2874 20 c8 -28
5 -31 -18 -14 -10 7 -15 18 -11 24 11 18 23 14 29 -10z m135 -10 c12 -16 21
-19 49 -13 47 8 69 -1 83 -35 6 -16 18 -31 26 -34 8 -3 14 -16 14 -28 0 -17 3
-19 9 -10 4 8 19 19 32 26 13 6 25 22 27 34 3 21 22 32 22 13 0 -6 16 -7 35
-4 27 4 35 2 35 -10 0 -8 9 -17 20 -20 12 -3 20 -14 20 -25 0 -40 49 -51 91
-21 36 25 91 19 126 -13 20 -19 23 -19 45 -4 29 21 74 21 82 0 6 -16 8 -16 24
0 51 45 69 -3 26 -66 -21 -30 -30 -36 -40 -27 -17 14 -44 -4 -44 -29 0 -12 10
-14 57 -8 31 4 70 13 87 21 33 15 152 35 161 27 3 -3 5 -15 5 -28 0 -13 8 -24
20 -27 12 -3 20 -14 20 -27 0 -12 14 -38 31 -58 26 -30 30 -41 25 -71 -7 -48
-40 -113 -64 -128 -23 -14 -62 -85 -62 -114 0 -11 -7 -22 -15 -25 -8 -4 -15
-13 -15 -20 0 -8 -11 -20 -25 -26 -13 -6 -27 -19 -30 -30 -5 -13 -12 -17 -31
-12 -17 4 -26 1 -30 -10 -8 -21 -54 -21 -54 -1 0 8 -4 15 -10 15 -16 0 -11
-42 6 -55 14 -10 12 -15 -21 -46 -21 -19 -51 -47 -67 -63 -23 -23 -33 -28 -46
-20 -12 8 -22 3 -44 -19 -15 -17 -28 -34 -28 -38 0 -13 -34 -11 -48 3 -9 9
-12 9 -12 0 0 -7 -7 -12 -16 -12 -9 0 -24 -10 -34 -22 l-17 -22 -8 23 c-6 21
-8 22 -26 5 -11 -10 -19 -12 -19 -6 0 16 -16 15 -57 -4 -32 -16 -36 -16 -51 0
-15 15 -15 18 1 45 16 28 16 29 -2 24 -14 -4 -20 1 -23 19 -4 22 -5 22 -19 -8
-9 -19 -19 -29 -28 -26 -8 3 -24 -7 -36 -22 -19 -24 -24 -25 -53 -15 -18 6
-32 17 -32 24 0 21 -17 27 -40 15 -18 -9 -23 -6 -41 25 -15 26 -25 33 -32 26
-6 -6 -22 -11 -35 -11 -21 0 -23 4 -20 37 2 28 -1 38 -17 44 -32 12 -42 10
-73 -16 -36 -30 -52 -32 -52 -6 0 12 -11 25 -27 33 -16 7 -29 23 -31 36 -3 17
-10 22 -33 22 -25 0 -29 3 -24 19 3 11 -1 25 -10 34 -8 9 -15 24 -15 35 0 11
-7 25 -16 33 -13 10 -17 10 -25 -2 -6 -10 -9 -1 -9 29 0 24 -5 42 -11 42 -7 0
-9 9 -5 23 5 21 3 23 -31 19 -23 -3 -33 -1 -29 6 11 18 -13 65 -29 58 -9 -3
-15 0 -15 8 0 8 5 16 12 18 6 2 13 14 15 26 3 26 -22 41 -40 23 -15 -15 -37
-14 -37 3 0 8 -7 16 -15 20 -19 7 -20 36 -1 36 8 0 16 6 19 13 5 16 -14 58
-24 51 -5 -3 -9 3 -9 12 0 10 3 14 6 11 4 -4 19 2 33 12 14 10 32 16 39 14 8
-3 12 6 12 29 0 42 24 111 42 120 22 11 53 21 61 20 4 -1 8 4 8 11 1 6 3 23 4
37 1 14 -2 28 -9 32 -6 5 -2 8 12 8 12 0 25 -7 29 -15 4 -11 18 -15 47 -14 43
1 154 -26 171 -42 5 -5 15 -9 23 -9 7 0 20 -7 28 -15 29 -29 36 -17 29 46 -6
50 -4 63 11 80 22 24 61 18 82 -13z m2419 -55 c-4 -17 -4 -17 -12 0 -4 9 -4
25 0 35 8 16 8 16 12 0 3 -10 3 -26 0 -35z m-1887 -3 c16 -10 15 -12 -20 -26
-29 -13 -50 -8 -50 11 0 23 43 32 70 15z m290 -10 c0 -5 -6 -10 -14 -10 -8 0
-18 5 -21 10 -3 6 3 10 14 10 12 0 21 -4 21 -10z m-107 -21 c-8 -8 -16 -8 -30
0 -16 9 -14 10 12 11 21 0 26 -3 18 -11z m707 -40 c0 -21 -10 -25 -27 -8 -9 9
-8 15 0 24 15 16 27 9 27 -16z m-2577 -40 c-10 -16 -21 -29 -25 -29 -11 0 -10
6 4 52 11 36 13 38 25 23 10 -15 9 -23 -4 -46z m3747 -20 c0 -5 -4 -9 -10 -9
-5 0 -10 7 -10 16 0 8 5 12 10 9 6 -3 10 -10 10 -16z m-3709 -54 c5 4 9 -2 10
-12 0 -16 1 -16 9 2 8 19 9 19 9 -3 1 -13 5 -20 11 -17 6 3 10 -3 10 -14 0
-12 -4 -21 -10 -21 -5 0 -7 -7 -4 -15 5 -13 9 -13 22 -3 11 9 14 9 9 1 -4 -6
-2 -15 5 -20 19 -12 38 -50 38 -75 0 -12 3 -19 6 -16 10 11 54 -43 54 -65 0
-13 6 -29 13 -36 10 -10 7 -16 -12 -30 -16 -12 -20 -20 -12 -25 6 -4 23 2 37
13 31 24 44 26 44 8 0 -7 8 -22 19 -33 10 -11 22 -30 25 -42 4 -12 11 -22 16
-22 4 0 7 -8 6 -17 -1 -13 7 -19 27 -21 33 -4 35 -17 5 -27 -22 -6 -21 -7 8
-14 47 -12 57 -20 44 -36 -9 -11 -6 -16 14 -21 21 -5 24 -9 15 -20 -9 -11 -6
-16 15 -24 27 -10 27 -10 9 -40 -9 -16 -23 -30 -31 -30 -7 0 -10 -4 -7 -10 9
-14 35 -12 35 3 0 6 11 12 25 12 14 0 25 -5 25 -11 0 -13 -30 -41 -30 -28 0 5
-5 2 -10 -6 -6 -10 -10 -11 -10 -2 0 6 -4 12 -10 12 -10 0 -11 -68 -1 -85 3
-5 6 -32 6 -58 0 -31 6 -51 15 -57 13 -8 12 -10 -2 -10 -10 0 -18 5 -18 11 0
5 -5 7 -10 4 -6 -4 -23 6 -38 22 -44 45 -71 63 -91 63 -11 0 -23 9 -26 20 -8
26 -25 16 -25 -16 0 -15 6 -24 15 -24 8 0 15 -4 15 -10 0 -5 8 -10 18 -10 11
0 26 -15 38 -39 22 -43 66 -84 103 -96 32 -10 61 -36 61 -55 0 -25 21 -40 57
-40 30 0 73 -30 73 -52 0 -4 7 -8 15 -8 7 0 18 -6 22 -13 7 -11 56 -36 80 -41
4 0 8 8 8 19 0 16 6 19 27 17 16 -1 38 3 50 9 19 10 20 13 6 23 -15 11 -42 55
-43 69 0 4 -7 12 -15 17 -13 9 -13 10 0 10 13 0 13 1 0 10 -13 9 -13 11 0 20
21 13 27 12 34 -5 3 -8 12 -15 21 -15 8 0 15 -4 15 -10 0 -5 6 -9 13 -7 6 1
11 -5 9 -14 -1 -11 7 -19 22 -23 19 -5 23 -12 22 -38 -2 -34 13 -58 36 -58 7
0 20 -4 28 -10 11 -7 9 -11 -13 -19 -54 -21 -27 -37 68 -40 44 -2 64 -12 65
-33 0 -4 -6 -5 -13 -2 -7 2 -22 -4 -32 -16 -10 -11 -26 -20 -35 -20 -23 0 -90
-69 -90 -94 0 -11 -10 -30 -22 -43 -17 -18 -18 -23 -6 -23 9 0 19 -7 22 -16 3
-8 10 -12 16 -9 14 9 103 8 131 0 19 -6 21 -4 16 14 -3 12 -1 19 3 16 5 -3 11
4 15 15 3 11 14 20 23 20 12 0 13 -3 4 -12 -19 -19 -14 -28 14 -28 17 0 24 4
21 12 -3 9 8 14 35 16 22 1 47 9 55 17 8 8 20 15 26 15 7 0 17 8 24 19 7 11
29 21 55 25 40 6 98 44 98 65 0 19 91 100 119 106 23 5 33 14 42 43 13 41 27
55 93 94 26 15 52 40 58 55 16 36 24 41 54 35 20 -3 24 0 24 18 0 18 3 20 14
11 12 -10 16 -8 22 11 4 13 7 29 6 36 -4 16 43 62 63 62 9 0 37 21 62 48 34
36 43 42 38 24 -6 -21 -4 -23 14 -17 16 5 21 2 21 -10 0 -17 -48 -162 -60
-180 -3 -5 -12 -30 -20 -55 -15 -54 -72 -169 -112 -227 -15 -23 -28 -48 -28
-55 0 -7 -8 -20 -17 -29 -10 -8 -36 -37 -58 -64 -22 -26 -56 -62 -75 -79 -19
-17 -52 -48 -73 -68 -22 -21 -55 -48 -75 -60 -20 -12 -50 -34 -66 -48 -17 -14
-51 -35 -76 -45 -25 -11 -61 -29 -80 -42 -19 -13 -38 -23 -43 -23 -5 0 -32
-11 -60 -24 -69 -33 -272 -76 -357 -76 -38 0 -93 5 -122 12 -29 6 -58 11 -65
10 -20 -4 -36 38 -29 78 4 28 2 39 -8 43 -15 6 -25 -11 -27 -46 -1 -17 -3 -14
-10 9 -5 17 -16 37 -24 44 -19 16 -19 46 0 54 8 3 15 10 15 16 0 5 -7 10 -15
10 -8 0 -15 -4 -15 -10 0 -5 -6 -10 -14 -10 -7 0 -21 -12 -31 -26 -13 -20 -19
-23 -31 -13 -19 16 -19 -9 1 -37 19 -29 9 -36 -26 -18 -30 15 -37 42 -18 61
12 12 -24 43 -51 43 -9 0 -30 14 -48 30 -19 17 -44 30 -60 30 -20 0 -23 -3
-14 -12 15 -15 16 -45 2 -53 -18 -11 -48 5 -54 30 -5 18 -13 25 -31 25 -21 0
-25 5 -25 30 0 17 3 30 8 30 4 0 8 12 9 27 l1 28 -29 -33 c-25 -27 -33 -31
-45 -22 -7 7 -14 18 -14 26 0 18 -19 27 -33 16 -9 -8 -19 -4 -36 14 -13 13
-27 24 -31 24 -10 0 -20 28 -25 71 -3 17 -10 38 -17 46 -9 11 -9 16 2 23 11 7
11 13 -3 34 -9 14 -14 32 -11 40 3 8 1 23 -5 34 -18 33 9 46 50 25 19 -10 35
-21 37 -25 2 -4 10 -4 18 -1 8 3 25 -2 39 -11 13 -9 33 -16 43 -16 23 0 35 35
21 61 -12 23 -12 42 1 34 6 -3 10 4 10 17 0 32 15 52 34 45 10 -4 16 -18 16
-37 0 -44 20 -27 21 18 1 20 4 48 9 62 l7 25 11 -27 c8 -19 16 -26 27 -22 9 4
14 13 11 20 -8 21 13 27 38 10 33 -21 25 -61 -12 -61 -34 0 -45 -19 -13 -23
18 -3 34 7 64 39 l40 42 -27 11 c-15 6 -28 16 -29 21 -1 6 -10 10 -19 9 -10 0
-18 4 -18 9 0 5 -18 29 -40 53 -22 24 -40 53 -40 64 0 31 -17 24 -29 -12 -10
-31 -14 -33 -58 -33 l-48 0 3 -42 c4 -47 -5 -54 -32 -24 -11 13 -15 27 -11 40
4 12 2 21 -4 21 -6 0 -11 5 -11 10 0 6 12 10 26 10 20 0 25 4 20 16 -3 9 -6
22 -6 30 0 9 -11 14 -34 14 -27 0 -36 5 -41 21 -5 16 -9 18 -15 9 -14 -23 -42
15 -38 53 2 23 -1 32 -12 32 -27 0 -37 28 -43 118 -5 69 -3 87 7 87 8 0 20 -7
27 -16 12 -14 14 -14 20 3 7 20 -15 58 -34 58 -19 0 -27 185 -9 204 8 8 12 27
10 43 -3 19 0 28 9 28 8 0 13 12 13 31 0 17 5 40 11 52 9 16 9 22 0 25 -6 2
-11 12 -11 22 0 10 -7 20 -15 24 -17 6 -20 42 -4 52 6 3 15 0 20 -7 5 -8 9
-11 10 -6 1 4 3 12 4 17 1 6 4 16 5 23 2 6 5 0 7 -16 2 -15 9 -25 14 -22z
m4162 0 c-3 -9 -8 -14 -10 -11 -3 3 -2 9 2 15 9 16 15 13 8 -4z m-4347 -87
l-1 -92 -33 -23 -34 -22 26 -7 c22 -5 26 -12 26 -40 0 -32 -9 -42 -23 -27 -4
3 -2 12 4 20 9 10 8 13 -5 13 -9 0 -19 -7 -22 -15 -4 -8 -12 -15 -20 -15 -41
0 -69 150 -31 171 9 6 17 16 17 23 0 24 25 66 38 61 20 -7 42 6 42 26 0 10 4
19 8 19 5 0 8 -41 8 -92z m276 30 c-6 -6 -16 -7 -22 -3 -9 6 -9 9 1 16 17 10
34 0 21 -13z m2773 -83 c84 -41 157 -75 162 -75 15 0 83 -61 83 -74 0 -6 19
-24 43 -39 23 -15 61 -45 85 -67 23 -22 47 -40 53 -40 6 0 33 -22 60 -50 43
-45 53 -50 92 -50 43 0 133 -25 152 -41 14 -14 -35 -10 -89 6 -27 8 -64 15
-83 15 -18 0 -59 13 -91 28 -31 16 -82 37 -112 47 -65 21 -75 25 -160 73 -113
64 -132 76 -169 108 -20 17 -54 37 -76 43 -81 25 -204 86 -205 102 0 20 66 89
86 89 8 0 84 -34 169 -75z m602 18 c-3 -10 -5 -4 -5 12 0 17 2 24 5 18 2 -7 2
-21 0 -30z m23 -115 c0 -38 -5 -34 -13 10 -4 21 -3 31 3 27 6 -3 10 -20 10
-37z m62 -3 c1 -25 2 -55 2 -67 1 -12 -4 -23 -10 -25 -7 -2 -12 6 -12 19 0 13
-4 44 -8 71 -6 40 -4 47 10 47 12 0 16 -11 18 -45z m157 -17 c-1 -51 -1 -52
-10 -18 -7 32 -4 70 7 70 2 0 4 -24 3 -52z m-3974 -69 c0 -8 -8 -13 -20 -11
-28 5 -32 12 -15 22 19 12 35 7 35 -11z m3591 -4 c-3 -9 -10 -13 -16 -10 -6 4
-5 11 3 20 15 16 22 11 13 -10z m848 -18 c-14 -82 -12 -79 -34 -57 -25 25 -25
32 0 55 11 10 20 24 20 32 0 8 4 11 10 8 5 -3 7 -20 4 -38z m-631 -12 c-3 -9
-8 -14 -10 -11 -3 3 -2 9 2 15 9 16 15 13 8 -4z m-222 -11 c17 -8 29 -17 27
-19 -7 -8 -78 16 -78 25 0 14 17 12 51 -6z m204 -64 c3 -5 -1 -10 -9 -10 -9 0
-16 -5 -16 -11 0 -5 -4 -7 -10 -4 -5 3 -10 13 -10 21 0 16 36 19 45 4z m28
-41 c4 -16 3 -18 -9 -8 -7 6 -11 15 -8 20 8 13 11 11 17 -12z m894 -11 c-3 -8
-6 -5 -6 6 -1 11 2 17 5 13 3 -3 4 -12 1 -19z m-4572 3 c3 -5 1 -12 -5 -16 -5
-3 -10 1 -10 9 0 18 6 21 15 7z m4455 -21 c0 -5 -5 -10 -11 -10 -5 0 -7 5 -4
10 3 6 8 10 11 10 2 0 4 -4 4 -10z m61 -90 c21 -12 26 -63 9 -90 -5 -8 -10
-11 -10 -6 0 5 -7 3 -16 -4 -13 -12 -15 -7 -13 48 1 34 4 62 6 62 3 0 13 -5
24 -10z m-2289 -132 c-7 -7 -12 -8 -12 -2 0 14 12 26 19 19 2 -3 -1 -11 -7
-17z m2271 -56 c8 -17 8 -25 -1 -34 -7 -7 -12 -29 -12 -51 0 -27 -4 -37 -12
-34 -9 3 -12 21 -11 53 3 63 14 123 20 104 2 -8 9 -25 16 -38z m-4416 22 c-3
-3 -12 -4 -19 -1 -8 3 -5 6 6 6 11 1 17 -2 13 -5z m-12 -34 c3 -5 -3 -10 -15
-10 -12 0 -18 5 -15 10 3 6 10 10 15 10 5 0 12 -4 15 -10z m4375 -120 c0 -10
5 -20 11 -22 9 -3 9 -10 0 -27 -12 -22 -13 -22 -26 -4 -9 12 -10 22 -3 30 6 7
8 22 5 33 -3 11 -1 18 4 14 5 -3 9 -14 9 -24z m-3740 -110 c0 -5 -7 -10 -15
-10 -8 0 -15 5 -15 10 0 6 7 10 15 10 8 0 15 -4 15 -10z m3720 -24 c0 -9 -30
-14 -35 -6 -4 6 3 10 14 10 12 0 21 -2 21 -4z m40 -35 c0 -11 5 -23 10 -26 6
-3 10 -13 10 -22 0 -13 -3 -13 -15 -3 -8 7 -13 16 -10 20 3 4 -2 13 -10 20 -8
7 -12 16 -9 21 9 16 24 10 24 -10z m-2943 -97 c-3 -3 -12 -4 -19 -1 -8 3 -5 6
6 6 11 1 17 -2 13 -5z m21 -36 c2 -9 -10 -31 -26 -49 -26 -29 -32 -31 -46 -20
-12 10 -13 18 -5 32 7 14 6 19 -2 19 -7 0 -5 8 6 20 22 25 68 23 73 -2z
m-1059 -455 c12 -42 8 -51 -14 -33 -16 13 -22 85 -5 75 5 -3 14 -22 19 -42z
m75 -35 c3 -13 1 -25 -4 -26 -6 -2 -8 -8 -4 -13 6 -11 -7 -12 -31 -3 -13 5
-14 9 -3 15 11 8 11 11 -1 18 -17 11 -6 31 18 31 11 0 21 -10 25 -22z"/>
<path d="M1933 5725 c0 -22 2 -30 4 -17 2 12 2 30 0 40 -3 9 -5 -1 -4 -23z"/>
<path d="M1920 5539 c0 -5 5 -7 10 -4 6 3 10 8 10 11 0 2 -4 4 -10 4 -5 0 -10
-5 -10 -11z"/>
<path d="M1926 5331 c-4 -7 -5 -15 -2 -18 9 -9 19 4 14 18 -4 11 -6 11 -12 0z"/>
<path d="M1860 5081 c0 -6 5 -13 10 -16 6 -3 10 1 10 9 0 9 -4 16 -10 16 -5 0
-10 -4 -10 -9z"/>
<path d="M1865 4890 c-3 -5 -1 -10 4 -10 6 0 11 5 11 10 0 6 -2 10 -4 10 -3 0
-8 -4 -11 -10z"/>
<path d="M3744 5825 c-12 -9 -14 -14 -6 -15 7 0 20 7 28 15 20 19 4 20 -22 0z"/>
<path d="M5040 5265 c0 -8 5 -15 10 -15 6 0 10 7 10 15 0 8 -4 15 -10 15 -5 0
-10 -7 -10 -15z"/>
<path d="M2393 4013 c-7 -3 -13 -11 -13 -18 0 -20 27 -26 35 -8 7 19 -5 32
-22 26z"/>
<path d="M5230 3480 c0 -5 5 -10 10 -10 6 0 10 5 10 10 0 6 -4 10 -10 10 -5 0
-10 -4 -10 -10z"/>
<path d="M3285 3040 c-3 -5 -1 -10 4 -10 6 0 11 5 11 10 0 6 -2 10 -4 10 -3 0
-8 -4 -11 -10z"/>
<path d="M3270 3000 c0 -5 5 -10 10 -10 6 0 10 5 10 10 0 6 -4 10 -10 10 -5 0
-10 -4 -10 -10z"/>
<path d="M4905 2510 c3 -5 8 -10 11 -10 2 0 4 5 4 10 0 6 -5 10 -11 10 -5 0
-7 -4 -4 -10z"/>
<path d="M1622 4783 c-13 -26 -42 -145 -42 -174 0 -14 5 -30 11 -36 14 -14 59
-196 59 -240 0 -56 24 -34 36 33 6 32 25 97 42 144 17 47 34 99 38 115 4 17
11 35 16 42 7 9 -8 30 -50 73 -61 62 -94 74 -110 43z m103 -123 c-3 -5 -11
-10 -16 -10 -6 0 -7 5 -4 10 3 6 11 10 16 10 6 0 7 -4 4 -10z"/>
<path d="M1720 3963 c-1 -16 75 -163 84 -163 11 0 0 108 -13 123 -14 18 -71
49 -71 40z"/>
<path d="M6227 4665 c-7 -17 3 -55 14 -55 8 0 11 8 8 26 0 4 4 10 10 13 6 4 3
11 -9 18 -14 10 -19 9 -23 -2z"/>
<path d="M6250 4260 c0 -5 5 -10 10 -10 6 0 10 5 10 10 0 6 -4 10 -10 10 -5 0
-10 -4 -10 -10z"/>
<path d="M6100 3826 c0 -8 5 -18 10 -21 6 -3 10 1 10 9 0 8 -4 18 -10 21 -5 3
-10 -1 -10 -9z"/>
<path d="M5890 4605 c0 -8 4 -15 10 -15 5 0 7 7 4 15 -4 8 -8 15 -10 15 -2 0
-4 -7 -4 -15z"/>
<path d="M5880 4003 c0 -21 3 -24 9 -14 5 8 7 20 4 28 -8 21 -13 15 -13 -14z"/>
<path d="M5860 2469 c0 -5 5 -7 10 -4 6 3 10 8 10 11 0 2 -4 4 -10 4 -5 0 -10
-5 -10 -11z"/>
<path d="M3293 2397 c-28 -12 -30 -34 -3 -42 25 -8 40 1 40 25 0 25 -10 30
-37 17z"/>
<path d="M3465 2340 c-15 -29 -15 -30 5 -30 16 0 20 7 20 30 0 17 -2 30 -5 30
-2 0 -11 -13 -20 -30z"/>
<path d="M3697 2323 c-4 -3 -7 -20 -7 -36 0 -17 -7 -38 -16 -48 -17 -19 -10
-43 11 -35 7 2 18 -1 25 -7 10 -10 11 -8 4 8 -5 11 -8 44 -7 73 2 53 1 57 -10
45z"/>
<path d="M3885 2240 c-10 -16 4 -30 31 -30 29 0 31 15 5 30 -24 12 -28 13 -36
0z"/>
<path d="M3190 2195 c0 -8 7 -15 16 -15 14 0 14 3 4 15 -7 8 -14 15 -16 15 -2
0 -4 -7 -4 -15z"/>
<path d="M4170 2145 c0 -8 2 -15 4 -15 2 0 6 7 10 15 3 8 1 15 -4 15 -6 0 -10
-7 -10 -15z"/>
<path d="M3270 2089 c-13 -8 -13 -10 0 -19 21 -14 30 -12 30 4 0 20 -13 27
-30 15z"/>
<path d="M3271 2050 c-18 -4 -40 -15 -48 -23 -19 -19 -20 -62 -1 -85 8 -9 25
-39 39 -66 17 -34 34 -53 57 -62 22 -10 32 -21 32 -35 0 -19 4 -21 39 -16 31
4 44 1 57 -15 15 -16 16 -21 5 -28 -25 -15 26 -31 102 -32 43 0 78 -5 87 -13
18 -15 50 -16 67 -3 7 6 24 7 39 4 29 -8 52 6 65 41 5 13 16 23 24 23 30 0
149 86 139 101 -3 5 1 9 8 9 8 0 21 13 31 29 l17 29 -31 16 c-18 9 -39 16 -48
16 -13 1 -13 3 3 15 24 18 12 34 -13 18 -10 -6 -60 -16 -112 -22 -115 -14
-195 -4 -322 39 -51 16 -110 36 -132 44 -22 7 -47 16 -55 19 -8 3 -30 1 -49
-3z"/>
<path d="M4065 2050 c-3 -5 -1 -10 4 -10 6 0 11 5 11 10 0 6 -2 10 -4 10 -3 0
-8 -4 -11 -10z"/>
<path d="M2930 1917 c0 -21 11 -27 31 -16 27 14 23 29 -6 29 -14 0 -25 -6 -25
-13z"/>
<path d="M3410 1535 c0 -8 4 -15 9 -15 5 0 11 7 15 15 3 9 0 15 -9 15 -8 0
-15 -7 -15 -15z"/>
<path d="M2310 1624 c0 -8 5 -12 10 -9 6 3 10 10 10 16 0 5 -4 9 -10 9 -5 0
-10 -7 -10 -16z"/>
<path d="M2356 1603 c-3 -3 -6 -19 -6 -35 0 -27 -19 -41 -21 -15 -2 24 -17
-39 -18 -75 -1 -25 3 -38 12 -38 20 1 48 27 45 41 -2 9 4 13 15 11 9 -2 17 2
17 9 0 9 3 9 14 0 11 -9 15 -7 20 11 8 33 7 39 -6 37 -23 -4 -48 13 -48 31 0
20 -13 33 -24 23z m-24 -95 c-7 -7 -12 -8 -12 -2 0 6 3 14 7 17 3 4 9 5 12 2
2 -3 -1 -11 -7 -17z"/>
<path d="M3055 1140 c4 -6 11 -8 16 -5 14 9 11 15 -7 15 -8 0 -12 -5 -9 -10z"/>
<path d="M3290 779 c0 -5 5 -7 10 -4 6 3 10 8 10 11 0 2 -4 4 -10 4 -5 0 -10
-5 -10 -11z"/>
<path d="M3040 719 c0 -18 2 -19 15 -9 8 7 15 16 15 21 0 5 -7 9 -15 9 -9 0
-15 -9 -15 -21z"/>
<path d="M2950 660 c0 -6 7 -10 15 -10 8 0 15 2 15 4 0 2 -7 6 -15 10 -8 3
-15 1 -15 -4z"/>
<path d="M2847 649 c7 -7 15 -10 18 -7 3 3 -2 9 -12 12 -14 6 -15 5 -6 -5z"/>
<path d="M2913 616 c-4 -7 -18 -18 -30 -25 -26 -13 -30 -31 -8 -31 8 0 15 -6
15 -12 0 -7 6 -2 13 12 7 14 23 26 35 28 25 4 28 12 10 30 -16 16 -25 15 -35
-2z"/>
<path d="M2940 549 c0 -5 5 -7 10 -4 6 3 10 8 10 11 0 2 -4 4 -10 4 -5 0 -10
-5 -10 -11z"/>
<path d="M2915 540 c3 -5 8 -10 11 -10 2 0 4 5 4 10 0 6 -5 10 -11 10 -5 0 -7
-4 -4 -10z"/>
<path d="M3338 483 c7 -3 16 -2 19 1 4 3 -2 6 -13 5 -11 0 -14 -3 -6 -6z"/>
<path d="M3037 453 c-12 -11 -8 -23 8 -23 8 0 15 7 15 15 0 16 -12 20 -23 8z"/>
<path d="M846 7991 c-10 -15 10 -96 22 -93 7 1 12 -2 12 -8 0 -5 -4 -10 -9
-10 -14 0 -21 -58 -10 -86 9 -26 10 -26 24 -8 13 18 14 16 15 -17 0 -24 -5
-39 -15 -43 -20 -7 -19 -33 3 -45 15 -9 15 -10 -5 -11 -16 0 -21 -6 -20 -20 1
-12 7 -18 13 -16 17 7 28 -26 12 -36 -7 -4 -8 -8 -3 -8 6 0 9 -38 7 -101 -3
-65 0 -105 7 -112 14 -14 15 -144 1 -152 -6 -4 -8 -41 -4 -98 5 -73 10 -97 26
-114 18 -19 19 -27 11 -62 -6 -22 -7 -45 -2 -53 6 -8 9 -1 9 22 0 26 3 31 10
20 8 -12 10 -12 16 4 7 18 3 76 -16 252 -5 50 -12 173 -15 274 -3 101 -10 191
-15 200 -5 10 -5 43 0 81 13 86 13 89 -8 89 -17 0 -23 32 -10 56 3 5 6 30 7
57 2 46 1 47 -28 47 -16 0 -32 -4 -35 -9z m71 -413 c-3 -8 -6 -5 -6 6 -1 11 2
17 5 13 3 -3 4 -12 1 -19z m13 -500 c-1 -30 -3 -38 -9 -28 -8 14 -4 70 5 70 2
0 4 -19 4 -42z"/>
<path d="M1950 7982 c0 -25 63 -24 68 1 3 13 -4 17 -32 17 -28 0 -36 -4 -36
-18z"/>
<path d="M2314 7984 c3 -9 6 -19 6 -24 0 -4 6 -10 14 -13 9 -4 13 3 12 24 -1
21 -6 29 -20 29 -12 0 -16 -5 -12 -16z"/>
<path d="M3247 7993 c-10 -9 -7 -114 3 -138 6 -13 9 7 9 63 1 82 0 88 -12 75z"/>
<path d="M3470 7990 c0 -5 9 -10 19 -10 11 0 22 -4 25 -9 7 -11 56 -21 56 -10
0 29 -15 39 -56 39 -24 0 -44 -4 -44 -10z"/>
<path d="M4081 7984 c0 -11 3 -14 6 -6 3 7 2 16 -1 19 -3 4 -6 -2 -5 -13z"/>
<path d="M4610 7984 c0 -8 5 -12 10 -9 6 3 10 10 10 16 0 5 -4 9 -10 9 -5 0
-10 -7 -10 -16z"/>
<path d="M4752 7980 c0 -14 2 -19 5 -12 2 6 2 18 0 25 -3 6 -5 1 -5 -13z"/>
<path d="M6400 7720 c0 -154 3 -280 8 -280 9 0 10 10 17 308 5 222 4 252 -10
252 -13 0 -15 -35 -15 -280z"/>
<path d="M6527 7973 c-4 -3 -7 -20 -7 -37 0 -52 -11 -76 -32 -76 -17 0 -19 -4
-13 -27 4 -16 7 -46 7 -68 -1 -50 -12 -504 -13 -525 -1 -8 3 -34 7 -57 7 -33
12 -40 23 -33 11 6 14 24 11 67 -5 95 -5 141 4 281 8 119 7 132 -8 132 -24 0
-19 14 14 38 17 13 30 31 30 42 0 12 7 20 18 20 10 0 25 16 36 40 19 39 19 42
2 58 -16 16 -18 16 -30 -1 -13 -16 -14 -16 -20 5 -3 13 -6 46 -6 73 0 50 -11
81 -23 68z m1 -199 c-2 -27 -7 -48 -13 -46 -8 2 -10 22 -6 102 1 10 4 11 12 3
5 -5 9 -32 7 -59z"/>
<path d="M1582 7943 c4 -21 33 -25 33 -3 0 8 -8 16 -18 18 -14 3 -18 -1 -15
-15z"/>
<path d="M5277 7920 c-16 -86 -17 -110 -8 -110 12 0 24 75 19 116 l-4 29 -7
-35z"/>
<path d="M6620 7928 c0 -14 -3 -39 -6 -56 -6 -27 -4 -31 16 -29 20 1 22 5 16
46 -7 52 -26 80 -26 39z"/>
<path d="M1996 7924 c-3 -8 -6 -31 -6 -50 0 -22 -5 -34 -14 -34 -17 0 -30
-114 -16 -141 17 -32 40 -23 40 15 0 75 12 126 30 126 24 0 32 41 21 100 -1 3
-5 -1 -10 -9 -8 -12 -13 -12 -24 -3 -12 10 -16 9 -21 -4z"/>
<path d="M3507 7934 c-3 -4 -2 -15 4 -25 6 -13 6 -25 -1 -38 -14 -27 -13 -31
10 -31 15 0 20 7 20 29 0 16 -6 32 -12 35 -10 5 -10 7 0 12 6 3 12 10 12 15 0
10 -23 12 -33 3z"/>
<path d="M4030 7910 c-6 -11 -8 -25 -5 -31 4 -5 -1 -21 -10 -35 -14 -22 -15
-31 -5 -55 23 -54 37 -27 31 59 -1 17 3 32 9 32 5 0 10 11 10 25 0 30 -15 33
-30 5z"/>
<path d="M4980 7895 c0 -22 4 -34 10 -30 6 3 10 17 10 30 0 13 -4 27 -10 30
-6 4 -10 -8 -10 -30z"/>
<path d="M2960 7885 c0 -24 5 -35 14 -35 20 0 25 11 19 43 -8 40 -33 35 -33
-8z"/>
<path d="M3806 7905 c4 -8 10 -12 15 -9 14 8 10 24 -6 24 -9 0 -12 -6 -9 -15z"/>
<path d="M6686 7881 c-4 -7 -5 -15 -2 -18 9 -9 19 4 14 18 -4 11 -6 11 -12 0z"/>
<path d="M2932 7843 c0 -29 2 -33 9 -18 11 27 11 55 0 55 -5 0 -9 -17 -9 -37z"/>
<path d="M3560 7849 c0 -5 5 -7 10 -4 6 3 10 8 10 11 0 2 -4 4 -10 4 -5 0 -10
-5 -10 -11z"/>
<path d="M605 7830 c-4 -7 -2 -16 6 -21 18 -11 23 -4 11 17 -7 12 -11 13 -17
4z"/>
<path d="M3880 7826 c0 -8 5 -18 10 -21 6 -3 10 3 10 14 0 12 -4 21 -10 21 -5
0 -10 -6 -10 -14z"/>
<path d="M5244 7734 c-4 -29 -2 -50 5 -57 8 -8 11 4 11 46 0 31 -2 57 -4 57
-3 0 -8 -21 -12 -46z"/>
<path d="M655 7750 c-8 -13 4 -32 16 -25 12 8 12 35 0 35 -6 0 -13 -4 -16 -10z"/>
<path d="M60 7740 c0 -5 5 -10 10 -10 6 0 10 5 10 10 0 6 -4 10 -10 10 -5 0
-10 -4 -10 -10z"/>
<path d="M3997 7713 c-4 -3 -7 -24 -7 -45 0 -33 3 -38 23 -37 17 1 18 2 4 6
-17 4 -18 25 -2 66 7 17 -5 24 -18 10z"/>
<path d="M3261 7660 c0 -32 2 -40 9 -29 5 9 6 28 0 45 -8 27 -8 26 -9 -16z"/>
<path d="M39 7674 c-1 -10 -1 -25 0 -32 1 -8 -3 -20 -9 -27 -8 -10 -9 -29 -4
-57 l7 -43 13 56 c13 56 13 103 1 116 -4 3 -8 -2 -8 -13z"/>
<path d="M4040 7660 c0 -5 4 -10 9 -10 6 0 13 5 16 10 3 6 -1 10 -9 10 -9 0
-16 -4 -16 -10z"/>
<path d="M4692 7630 c0 -19 2 -27 5 -17 2 9 2 25 0 35 -3 9 -5 1 -5 -18z"/>
<path d="M5230 7629 c0 -11 5 -17 10 -14 6 3 10 13 10 21 0 8 -4 14 -10 14 -5
0 -10 -9 -10 -21z"/>
<path d="M4040 7630 c0 -5 5 -10 10 -10 6 0 10 5 10 10 0 6 -4 10 -10 10 -5 0
-10 -4 -10 -10z"/>
<path d="M67 7603 c-4 -3 -7 -22 -7 -41 0 -20 3 -32 8 -28 5 6 11 76 6 76 0 0
-4 -3 -7 -7z"/>
<path d="M2001 7584 c0 -11 3 -14 6 -6 3 7 2 16 -1 19 -3 4 -6 -2 -5 -13z"/>
<path d="M3255 7550 c-7 -12 -7 -12 23 -15 13 -1 22 3 22 11 0 16 -36 19 -45
4z"/>
<path d="M2565 7501 c-3 -5 -1 -12 5 -16 5 -3 10 1 10 9 0 18 -6 21 -15 7z"/>
<path d="M6040 7475 c0 -8 2 -15 4 -15 2 0 6 7 10 15 3 8 1 15 -4 15 -6 0 -10
-7 -10 -15z"/>
<path d="M49 7465 c-4 -3 -4 -26 -1 -50 3 -30 1 -45 -7 -45 -13 0 -15 -56 -2
-64 14 -9 35 108 24 139 -4 14 -11 24 -14 20z"/>
<path d="M6040 7413 c0 -16 5 -35 10 -43 7 -11 10 -4 10 28 0 23 -4 42 -10 42
-5 0 -10 -12 -10 -27z"/>
<path d="M6396 7404 c-4 -14 -5 -28 -3 -31 3 -2 8 8 11 23 4 14 5 28 3 31 -3
2 -8 -8 -11 -23z"/>
<path d="M2572 7345 c0 -16 2 -22 5 -12 2 9 2 23 0 30 -3 6 -5 -1 -5 -18z"/>
<path d="M6390 7245 c0 -14 5 -25 10 -25 6 0 10 11 10 25 0 14 -4 25 -10 25
-5 0 -10 -11 -10 -25z"/>
<path d="M1335 7211 c-8 -15 3 -31 21 -31 9 0 14 7 12 17 -4 20 -24 28 -33 14z"/>
<path d="M566 7186 c-8 -32 3 -64 15 -44 11 17 11 55 0 62 -5 3 -12 -5 -15
-18z"/>
<path d="M76 7192 c-3 -6 -6 -21 -5 -33 0 -13 -3 -79 -7 -146 -5 -86 -4 -127
4 -136 8 -9 9 -24 2 -47 -10 -34 -6 -50 12 -50 6 0 8 50 3 153 -4 106 -2 168
6 201 8 32 8 51 1 58 -6 6 -12 6 -16 0z"/>
<path d="M6450 7176 c0 -14 5 -26 10 -26 6 0 10 9 10 19 0 11 -4 23 -10 26 -6
4 -10 -5 -10 -19z"/>
<path d="M162 7170 c0 -14 2 -19 5 -12 2 6 2 18 0 25 -3 6 -5 1 -5 -13z"/>
<path d="M2172 7160 c0 -14 2 -19 5 -12 2 6 2 18 0 25 -3 6 -5 1 -5 -13z"/>
<path d="M1946 7083 c-4 -38 -6 -86 -5 -108 l2 -40 16 35 c16 37 22 106 14
153 -8 48 -21 29 -27 -40z"/>
<path d="M6457 7127 c-10 -26 -9 -55 2 -62 14 -8 18 6 11 45 -4 27 -7 31 -13
17z"/>
<path d="M130 7035 c0 -9 5 -15 11 -13 6 2 11 8 11 13 0 5 -5 11 -11 13 -6 2
-11 -4 -11 -13z"/>
<path d="M174 7004 c3 -9 6 -21 6 -27 0 -7 5 -4 11 6 11 18 5 37 -13 37 -5 0
-7 -7 -4 -16z"/>
<path d="M151 6974 c0 -11 3 -14 6 -6 3 7 2 16 -1 19 -3 4 -6 -2 -5 -13z"/>
<path d="M182 6930 c0 -19 2 -27 5 -17 2 9 2 25 0 35 -3 9 -5 1 -5 -18z"/>
<path d="M0 6858 c0 -21 5 -38 10 -38 13 0 13 40 0 60 -7 11 -10 5 -10 -22z"/>
<path d="M630 6875 c0 -8 5 -15 10 -15 6 0 10 7 10 15 0 8 -4 15 -10 15 -5 0
-10 -7 -10 -15z"/>
<path d="M146 6832 c-2 -4 -1 -14 3 -21 6 -10 10 -9 14 3 6 16 -8 32 -17 18z"/>
<path d="M181 6824 c0 -11 3 -14 6 -6 3 7 2 16 -1 19 -3 4 -6 -2 -5 -13z"/>
<path d="M6372 6820 c0 -14 2 -19 5 -12 2 6 2 18 0 25 -3 6 -5 1 -5 -13z"/>
<path d="M5930 6800 c0 -5 5 -10 10 -10 6 0 10 5 10 10 0 6 -4 10 -10 10 -5 0
-10 -4 -10 -10z"/>
<path d="M6992 6750 c-14 -23 -16 -40 -3 -40 9 0 25 49 19 56 -2 2 -9 -6 -16
-16z"/>
<path d="M5980 6749 c0 -5 5 -7 10 -4 6 3 10 8 10 11 0 2 -4 4 -10 4 -5 0 -10
-5 -10 -11z"/>
<path d="M76 6673 c-8 -26 3 -55 19 -49 8 3 16 -2 19 -10 8 -21 26 -17 35 9 5
12 12 20 17 17 5 -3 10 3 12 13 4 21 -14 23 -22 2 -3 -9 -18 -15 -36 -15 -18
0 -29 4 -25 10 3 5 2 17 -3 27 -9 15 -10 14 -16 -4z"/>
<path d="M5970 6680 c0 -12 8 -12 35 0 18 8 17 9 -7 9 -16 1 -28 -3 -28 -9z"/>
<path d="M6370 6660 c0 -5 5 -10 10 -10 6 0 10 5 10 10 0 6 -4 10 -10 10 -5 0
-10 -4 -10 -10z"/>
<path d="M0 6630 c0 -18 4 -29 10 -25 13 8 13 42 0 50 -6 4 -10 -7 -10 -25z"/>
<path d="M6470 6578 c0 -9 -6 -18 -12 -21 -10 -3 -10 -7 0 -20 9 -11 11 -36 8
-89 -3 -40 -2 -79 3 -86 12 -20 19 51 12 130 -4 38 -3 69 1 70 4 2 3 10 -2 18
-8 13 -10 13 -10 -2z"/>
<path d="M146 6564 c-8 -22 1 -31 16 -16 9 9 9 15 1 23 -7 7 -12 5 -17 -7z"/>
<path d="M6366 6540 c-7 -24 -14 -134 -8 -149 7 -20 32 57 32 99 0 41 -16 74
-24 50z"/>
<path d="M7492 6515 c0 -16 2 -22 5 -12 2 9 2 23 0 30 -3 6 -5 -1 -5 -18z"/>
<path d="M952 6505 c0 -16 2 -22 5 -12 2 9 2 23 0 30 -3 6 -5 -1 -5 -18z"/>
<path d="M146 6512 c-2 -4 -1 -23 4 -42 l8 -35 1 43 c1 41 -3 50 -13 34z"/>
<path d="M1148 6455 c2 -19 8 -35 13 -35 10 0 11 16 3 48 -10 35 -20 26 -16
-13z"/>
<path d="M1730 6414 c0 -8 5 -12 10 -9 6 3 10 10 10 16 0 5 -4 9 -10 9 -5 0
-10 -7 -10 -16z"/>
<path d="M787 6283 c-11 -10 -8 -93 3 -93 6 0 10 23 10 50 0 51 -1 55 -13 43z"/>
<path d="M6425 6210 c-4 -6 -3 -16 3 -22 6 -6 12 -6 17 2 4 6 3 16 -3 22 -6 6
-12 6 -17 -2z"/>
<path d="M6470 6143 c0 -27 -5 -66 -11 -88 -6 -22 -12 -94 -14 -160 -6 -237
-10 -280 -32 -320 -5 -11 -13 -39 -17 -62 -6 -39 -4 -43 14 -43 12 0 20 -7 20
-16 0 -10 -6 -14 -14 -11 -16 6 -30 -19 -20 -35 4 -6 10 -5 15 3 8 12 11 11
19 -1 5 -8 10 -10 11 -5 0 6 3 30 5 55 2 25 10 50 18 55 18 14 29 52 16 60 -5
3 -10 1 -10 -4 0 -6 -4 -11 -10 -11 -17 0 -11 25 10 38 11 6 20 22 20 35 0 12
0 76 0 143 1 66 -3 140 -9 163 -10 45 -6 90 10 133 7 16 8 40 3 60 -4 18 -7
39 -5 46 1 6 -3 12 -9 12 -5 0 -10 -21 -10 -47z m-37 -620 c5 -27 2 -41 -7
-32 -11 10 -17 59 -8 59 5 0 12 -12 15 -27z"/>
<path d="M799 6148 c0 -7 -3 -25 -5 -40 -2 -14 0 -29 6 -33 6 -4 10 11 10 39
0 25 -2 46 -5 46 -3 0 -5 -6 -6 -12z"/>
<path d="M1441 6145 c-1 -11 -4 -31 -6 -45 l-6 -25 11 25 c6 13 9 33 7 45 -4
19 -4 19 -6 0z"/>
<path d="M1650 6150 c0 -5 5 -10 10 -10 6 0 10 5 10 10 0 6 -4 10 -10 10 -5 0
-10 -4 -10 -10z"/>
<path d="M1545 6057 c-4 -10 -5 -21 -1 -24 10 -10 18 4 13 24 -4 17 -4 17 -12
0z"/>
<path d="M6832 6053 c-11 -22 -30 -102 -29 -125 1 -48 47 36 49 92 2 46 -6 60
-20 33z"/>
<path d="M1736 6031 c-4 -7 -5 -15 -2 -18 9 -9 19 4 14 18 -4 11 -6 11 -12 0z"/>
<path d="M1130 5971 c0 -6 5 -13 10 -16 6 -3 10 1 10 9 0 9 -4 16 -10 16 -5 0
-10 -4 -10 -9z"/>
<path d="M1390 5950 c0 -5 5 -10 10 -10 6 0 10 5 10 10 0 6 -4 10 -10 10 -5 0
-10 -4 -10 -10z"/>
<path d="M6563 5800 c0 -25 2 -35 4 -22 2 12 2 32 0 45 -2 12 -4 2 -4 -23z"/>
<path d="M1280 5624 c0 -8 5 -12 10 -9 6 3 10 10 10 16 0 5 -4 9 -10 9 -5 0
-10 -7 -10 -16z"/>
<path d="M1694 5626 c-3 -8 -1 -23 5 -33 9 -15 10 -13 11 15 0 34 -7 42 -16
18z"/>
<path d="M6710 5611 c-12 -24 -13 -31 -1 -31 5 0 11 11 13 25 6 30 2 32 -12 6z"/>
<path d="M1720 5509 c0 -5 5 -7 10 -4 6 3 10 8 10 11 0 2 -4 4 -10 4 -5 0 -10
-5 -10 -11z"/>
<path d="M6545 5470 c3 -5 8 -10 11 -10 2 0 4 5 4 10 0 6 -5 10 -11 10 -5 0
-7 -4 -4 -10z"/>
<path d="M6643 5382 c-12 -38 -9 -60 4 -26 3 10 11 22 16 25 6 4 6 13 0 22 -6
13 -11 8 -20 -21z"/>
<path d="M873 5340 c0 -25 2 -35 4 -22 2 12 2 32 0 45 -2 12 -4 2 -4 -23z"/>
<path d="M1624 5354 c3 -9 6 -18 6 -20 0 -3 5 -2 10 1 16 10 12 35 -6 35 -11
0 -14 -5 -10 -16z"/>
<path d="M7251 5315 c-1 -5 -5 -27 -10 -47 -5 -21 -5 -38 0 -38 10 0 23 64 16
82 -3 7 -6 9 -6 3z"/>
<path d="M6627 5291 c-2 -10 -1 -25 4 -32 6 -10 9 -4 9 19 0 36 -5 42 -13 13z"/>
<path d="M6610 5191 c0 -25 6 -27 13 -6 4 8 2 17 -3 20 -6 4 -10 -3 -10 -14z"/>
<path d="M1641 5184 c0 -11 3 -14 6 -6 3 7 2 16 -1 19 -3 4 -6 -2 -5 -13z"/>
<path d="M6251 5084 c0 -11 3 -14 6 -6 3 7 2 16 -1 19 -3 4 -6 -2 -5 -13z"/>
<path d="M6610 5034 c0 -8 5 -12 10 -9 6 3 10 10 10 16 0 5 -4 9 -10 9 -5 0
-10 -7 -10 -16z"/>
<path d="M6841 4904 c0 -11 3 -14 6 -6 3 7 2 16 -1 19 -3 4 -6 -2 -5 -13z"/>
<path d="M1096 4901 c-4 -6 -3 -19 3 -28 9 -17 10 -17 17 0 8 21 -10 45 -20
28z"/>
<path d="M6782 4870 c-11 -27 2 -65 19 -55 12 8 12 46 -1 65 -7 12 -11 10 -18
-10z"/>
<path d="M6822 4825 c0 -16 2 -22 5 -12 2 9 2 23 0 30 -3 6 -5 -1 -5 -18z"/>
<path d="M1050 4790 c-1 -3 -2 -36 -3 -74 -1 -45 -6 -71 -14 -74 -14 -4 -18
-70 -5 -88 4 -6 16 -14 27 -18 20 -6 20 -3 15 54 -3 33 -2 67 3 76 9 16 0 89
-14 114 -5 8 -9 13 -9 10z"/>
<path d="M6786 4745 c-4 -14 -15 -34 -26 -45 -11 -11 -15 -20 -10 -20 6 0 10
-15 10 -32 0 -40 13 -62 31 -56 9 3 14 30 16 91 2 84 -8 114 -21 62z"/>
<path d="M6790 4570 c0 -5 -6 -10 -13 -10 -8 0 -19 -12 -26 -27 -11 -24 -10
-29 9 -45 12 -10 25 -18 29 -18 4 0 9 25 10 55 1 30 0 55 -3 55 -4 0 -6 -4 -6
-10z"/>
<path d="M6637 4343 c-13 -12 -7 -23 13 -23 13 0 18 5 14 15 -7 16 -17 19 -27
8z"/>
<path d="M7496 4232 c-7 -60 -1 -92 16 -92 6 0 7 19 3 49 -4 31 -3 51 4 56 16
9 13 45 -3 45 -9 0 -16 -19 -20 -58z"/>
<path d="M7395 4196 c-4 -20 -3 -47 2 -59 6 -12 7 -32 2 -43 -6 -19 -4 -21 13
-16 19 5 20 10 14 64 -8 81 -22 105 -31 54z"/>
<path d="M6723 4176 c-14 -15 -23 -36 -23 -56 l0 -33 18 24 c54 74 57 121 5
65z"/>
<path d="M6640 4164 c0 -9 -9 -18 -20 -21 -11 -3 -20 -8 -21 -12 0 -3 -2 -33
-5 -66 -5 -45 -3 -57 6 -49 6 6 13 28 15 49 2 22 10 42 19 47 9 5 16 16 16 23
0 8 5 15 10 15 6 0 10 7 10 15 0 8 -7 15 -15 15 -8 0 -15 -7 -15 -16z"/>
<path d="M6493 4144 c-9 -24 11 -49 36 -47 26 3 27 -5 4 -23 -17 -13 -17 -13
0 -14 23 0 47 23 47 45 0 8 -11 20 -25 25 -14 5 -25 14 -25 20 0 16 -30 11
-37 -6z"/>
<path d="M7520 4102 c0 -32 13 -63 37 -89 17 -19 40 22 24 41 -6 8 -9 22 -6
32 4 12 2 11 -6 -3 -7 -13 -16 -23 -21 -23 -4 0 -8 10 -8 23 0 12 -5 29 -10
37 -7 11 -10 7 -10 -18z"/>
<path d="M7390 4032 c0 -13 4 -20 10 -17 6 4 7 -6 4 -25 -5 -23 -3 -30 10 -30
19 0 21 11 4 28 -9 9 -9 12 0 12 7 0 12 13 12 29 0 24 -4 29 -20 28 -14 -1
-20 -8 -20 -25z"/>
<path d="M7371 3934 c0 -11 3 -14 6 -6 3 7 2 16 -1 19 -3 4 -6 -2 -5 -13z"/>
<path d="M7618 3910 c-4 -14 -8 -34 -8 -45 1 -19 1 -19 11 -2 6 10 9 30 7 45
l-3 27 -7 -25z"/>
<path d="M7362 3860 c0 -14 2 -19 5 -12 2 6 2 18 0 25 -3 6 -5 1 -5 -13z"/>
<path d="M6611 3818 c-1 -14 -4 -33 -7 -42 -4 -11 -1 -16 10 -16 17 0 19 19 6
60 l-8 25 -1 -27z"/>
<path d="M6894 3805 c-13 -26 -15 -38 -7 -46 13 -13 25 6 37 54 9 38 -7 34
-30 -8z"/>
<path d="M7500 3829 c0 -5 5 -7 10 -4 6 3 10 8 10 11 0 2 -4 4 -10 4 -5 0 -10
-5 -10 -11z"/>
<path d="M7243 3790 c-12 -28 -33 -111 -39 -152 -6 -49 14 -30 25 24 7 28 16
57 22 64 6 7 9 30 7 51 -3 37 -4 37 -15 13z"/>
<path d="M7606 3773 c8 -46 12 -51 20 -29 8 21 -3 66 -17 66 -6 0 -7 -14 -3
-37z"/>
<path d="M7373 3773 c3 -13 2 -23 -1 -23 -8 0 -27 -44 -36 -84 -4 -16 -9 -83
-12 -150 -2 -66 -9 -135 -16 -152 -9 -26 -8 -35 5 -55 10 -13 17 -32 17 -42 0
-13 5 -17 14 -14 8 3 17 1 20 -6 4 -7 4 32 1 85 -4 89 -3 99 15 108 25 13 33
41 24 85 -6 35 -7 35 -25 19 -29 -26 -37 -7 -28 61 14 106 20 124 36 118 12
-5 14 -1 8 18 -4 13 -12 31 -17 39 -7 11 -8 10 -5 -7z"/>
<path d="M7572 3755 c0 -16 2 -22 5 -12 2 9 2 23 0 30 -3 6 -5 -1 -5 -18z"/>
<path d="M6875 3719 c-4 -6 -5 -12 -2 -15 2 -3 7 2 10 11 7 17 1 20 -8 4z"/>
<path d="M7410 3705 c0 -8 -4 -15 -10 -15 -5 0 -10 -7 -10 -15 0 -8 7 -15 15
-15 10 0 15 10 15 30 0 17 -2 30 -5 30 -3 0 -5 -7 -5 -15z"/>
<path d="M7586 3695 c-3 -8 -1 -15 4 -15 6 0 10 7 10 15 0 8 -2 15 -4 15 -2 0
-6 -7 -10 -15z"/>
<path d="M7585 3660 c3 -5 8 -10 11 -10 2 0 4 5 4 10 0 6 -5 10 -11 10 -5 0
-7 -4 -4 -10z"/>
<path d="M6861 3647 c-6 -8 -14 -28 -17 -45 -5 -25 -3 -32 9 -32 10 0 18 14
22 41 8 45 4 56 -14 36z"/>
<path d="M7609 3627 c-1 -4 -2 -11 -3 -16 0 -5 -5 -13 -10 -18 -5 -5 -6 -3 -2
5 4 7 2 12 -5 12 -8 0 -9 -10 -5 -31 3 -17 6 -47 6 -65 0 -29 3 -34 25 -34 24
0 24 1 18 68 -3 37 -9 71 -14 77 -5 5 -10 6 -10 2z m5 -103 c3 -8 2 -12 -4 -9
-6 3 -10 10 -10 16 0 14 7 11 14 -7z"/>
<path d="M6727 3594 c-4 -4 -7 -14 -7 -23 0 -11 3 -12 11 -4 6 6 10 16 7 23
-2 6 -7 8 -11 4z"/>
<path d="M7175 3590 c4 -6 11 -8 16 -5 14 9 11 15 -7 15 -8 0 -12 -5 -9 -10z"/>
<path d="M6831 3517 c-7 -13 -11 -37 -9 -53 3 -25 5 -22 15 21 13 57 12 65 -6
32z"/>
<path d="M7953 3430 c0 -30 2 -43 4 -27 2 15 2 39 0 55 -2 15 -4 2 -4 -28z"/>
<path d="M7401 3428 c0 -7 4 -22 9 -33 8 -18 9 -17 9 7 1 15 -3 30 -9 33 -5 3
-10 0 -9 -7z"/>
<path d="M7176 3401 c-4 -7 -5 -15 -2 -18 9 -9 19 4 14 18 -4 11 -6 11 -12 0z"/>
<path d="M6940 3383 c0 -13 5 -23 10 -23 13 0 13 11 0 30 -8 12 -10 11 -10 -7z"/>
<path d="M6565 3380 c-3 -6 1 -7 9 -4 18 7 21 14 7 14 -6 0 -13 -4 -16 -10z"/>
<path d="M6515 3350 c3 -5 8 -10 11 -10 2 0 4 5 4 10 0 6 -5 10 -11 10 -5 0
-7 -4 -4 -10z"/>
<path d="M7574 3336 c-3 -9 0 -24 7 -33 8 -8 12 -26 11 -39 -4 -32 14 -31 20
1 3 14 1 25 -4 25 -5 0 -7 12 -6 26 3 30 -19 45 -28 20z"/>
<path d="M6626 3262 c-2 -4 -1 -14 5 -22 7 -12 9 -10 9 8 0 23 -5 28 -14 14z"/>
<path d="M7105 3227 c-8 -20 -15 -41 -15 -47 0 -16 25 -12 43 8 21 23 22 46 2
62 -13 10 -17 7 -30 -23z"/>
<path d="M6926 3232 c-4 -13 -5 -26 -2 -29 10 -11 18 4 14 29 l-4 23 -8 -23z"/>
<path d="M7940 3242 c0 -14 11 -21 26 -15 21 8 17 23 -6 23 -11 0 -20 -4 -20
-8z"/>
<path d="M7331 3180 c0 -34 -3 -65 -6 -70 -3 -5 1 -37 9 -72 11 -48 12 -74 4
-108 -17 -74 -21 -150 -9 -150 6 0 11 -7 11 -15 0 -8 -7 -15 -15 -15 -9 0 -18
7 -21 15 -4 8 -16 15 -28 15 -18 1 -19 2 -6 13 18 15 14 57 -6 57 -9 0 -14
-11 -14 -31 0 -22 -6 -32 -19 -36 -16 -4 -38 -66 -47 -128 0 -5 -9 -28 -19
-50 -11 -26 -13 -41 -6 -43 13 -4 15 -52 1 -52 -5 0 -12 -17 -15 -37 -14 -89
-29 -159 -36 -168 -4 -5 -10 -34 -13 -63 -3 -29 -12 -63 -21 -75 -8 -12 -15
-38 -15 -59 0 -20 -4 -40 -10 -43 -6 -3 -10 4 -10 16 0 22 0 22 -15 3 -16 -21
-20 -54 -6 -54 12 0 21 -39 10 -46 -5 -3 -9 -18 -9 -33 0 -36 -27 -62 -41 -40
-13 21 -11 26 11 32 14 3 20 14 20 31 0 14 -3 26 -7 26 -13 0 -63 -113 -63
-140 0 -14 -7 -36 -16 -48 -17 -25 -12 -72 7 -72 6 0 8 7 5 15 -3 9 1 18 10
22 12 4 15 15 10 42 -3 20 -1 43 4 51 7 11 10 8 10 -15 0 -20 9 -36 24 -47 31
-22 39 -12 57 70 7 34 16 62 20 62 4 0 10 12 12 28 l4 27 2 -27 c0 -18 7 -28
16 -28 8 0 15 -6 15 -12 0 -7 5 -5 11 5 12 20 9 59 -5 69 -6 4 -5 13 3 22 7 8
11 28 9 45 -2 17 0 29 3 28 3 -1 13 4 21 10 8 7 18 10 21 6 12 -11 7 -40 -8
-53 -9 -8 -13 -20 -9 -29 3 -9 8 -29 11 -46 3 -16 15 -42 28 -56 l22 -28 11
25 c11 24 41 24 43 0 1 -6 6 6 13 26 l11 37 25 -19 c18 -13 21 -22 14 -32 -6
-7 -8 -23 -5 -36 3 -13 2 -82 -3 -153 -8 -117 -5 -152 9 -138 2 3 6 26 8 51 2
25 8 51 13 59 4 8 9 41 10 74 1 33 5 101 9 150 4 50 8 135 9 190 5 153 18 305
28 311 4 3 3 15 -3 26 -10 19 -13 189 -6 375 2 61 -16 91 -32 52 -8 -21 -10
-17 -12 26 -3 89 3 129 27 177 30 59 30 61 -2 95 -21 23 -27 25 -35 13 -8 -12
-9 -11 -7 4 2 10 -2 21 -8 23 -8 3 -12 -16 -13 -57z m31 -339 c-9 -24 -24 17
-16 42 8 22 8 22 14 -3 4 -14 4 -31 2 -39z m-62 -117 c0 -2 -7 -4 -15 -4 -8 0
-15 4 -15 10 0 5 7 7 15 4 8 -4 15 -8 15 -10z m1 -122 c2 -90 3 -88 14 11 4
31 11 57 17 57 6 0 7 -18 3 -51 -6 -41 -4 -53 10 -63 14 -10 15 -16 6 -34 -7
-12 -13 -46 -15 -75 -4 -71 -17 -136 -27 -143 -5 -3 -9 0 -9 5 0 6 -8 11 -18
11 -23 0 -46 94 -29 121 8 12 8 31 0 63 -7 31 -7 49 0 53 5 3 7 28 4 59 -4 41
-2 58 10 69 25 26 33 7 34 -83z m-74 -58 c-3 -3 -12 -4 -19 -1 -8 3 -5 6 6 6
11 1 17 -2 13 -5z m173 -88 c-7 -7 -10 -4 -10 6 0 8 -2 31 -5 49 -6 33 -6 33
9 -6 10 -25 12 -43 6 -49z m-182 8 c1 -14 -5 -32 -13 -40 -13 -14 -15 -12 -15
19 0 50 24 68 28 21z m-24 -79 c-4 -8 -8 -15 -10 -15 -2 0 -4 7 -4 15 0 8 4
15 10 15 5 0 7 -7 4 -15z m3 -82 c-11 -10 -26 8 -20 23 5 15 7 14 15 -1 6 -9
7 -19 5 -22z m90 -25 c-3 -8 -6 -5 -6 6 -1 11 2 17 5 13 3 -3 4 -12 1 -19z
m-107 -13 c0 -14 -4 -25 -10 -25 -11 0 -14 33 -3 43 11 11 13 8 13 -18z m123
-69 c-4 -6 -10 -26 -14 -46 -5 -28 -7 -23 -8 30 0 59 1 63 14 46 8 -10 11 -24
8 -30z m7 -165 c15 -29 13 -31 -30 -31 -45 0 -51 11 -18 34 29 21 35 20 48 -3z
m-50 -61 c0 -5 -2 -10 -4 -10 -3 0 -8 5 -11 10 -3 6 -1 10 4 10 6 0 11 -4 11
-10z"/>
<path d="M7295 2490 c-3 -5 -1 -10 4 -10 6 0 11 5 11 10 0 6 -2 10 -4 10 -3 0
-8 -4 -11 -10z"/>
<path d="M7596 3217 c3 -10 9 -15 12 -12 3 3 0 11 -7 18 -10 9 -11 8 -5 -6z"/>
<path d="M7933 3145 c-7 -8 -13 -30 -13 -50 0 -20 -5 -67 -11 -105 -12 -68
-11 -69 15 -101 19 -22 26 -39 21 -53 -3 -12 -8 -38 -10 -59 -2 -21 -7 -42
-10 -46 -2 -5 5 -12 18 -16 13 -4 17 -8 10 -12 -7 -2 -13 -13 -13 -23 0 -23
-16 -35 -24 -18 -3 7 -3 0 1 -17 8 -39 11 -45 29 -45 12 0 14 -9 8 -47 -9 -63
-21 -86 -30 -56 -6 23 -36 39 -54 28 -5 -3 -12 -28 -16 -55 -4 -27 -10 -47
-15 -44 -10 6 -10 5 -12 -46 -1 -23 3 -34 11 -33 6 2 12 -3 12 -11 0 -14 44
-31 58 -22 4 2 12 -2 19 -9 9 -10 7 -15 -11 -23 -25 -11 -29 -27 -28 -147 0
-125 38 -222 67 -175 4 6 15 8 26 5 17 -6 19 -1 19 44 0 39 -4 51 -15 51 -8 0
-15 -5 -15 -11 0 -8 -4 -8 -13 0 -8 6 -12 23 -9 41 3 24 9 30 28 30 28 0 31
21 12 112 -9 46 -10 63 0 78 7 12 8 21 2 25 -13 8 -13 85 0 85 6 0 10 7 10 15
0 21 -17 19 -30 -5 -13 -24 -30 -26 -30 -5 0 8 4 15 9 15 5 0 9 19 9 42 1 66
13 119 28 125 19 7 18 49 -1 57 -8 3 -15 12 -15 21 0 9 7 18 15 21 12 5 15 24
15 88 -1 73 -2 79 -15 62 -15 -19 -15 -19 -15 1 0 12 -6 24 -12 27 -7 3 -1 4
15 1 25 -5 37 7 18 19 -11 7 -21 56 -10 56 4 0 10 -6 12 -12 3 -7 5 7 6 32 0
37 -2 41 -9 23 -19 -47 -30 -23 -30 67 0 90 -4 102 -27 75z m-33 -811 c0 -8
-4 -14 -10 -14 -5 0 -10 9 -10 21 0 11 5 17 10 14 6 -3 10 -13 10 -21z m61
-81 c0 -16 4 -40 11 -75 2 -7 -7 -14 -18 -16 -20 -3 -22 1 -20 52 1 38 5 56
13 56 7 0 13 -8 14 -17z m-54 -35 c-3 -8 -6 -5 -6 6 -1 11 2 17 5 13 3 -3 4
-12 1 -19z m13 -144 c0 -8 -5 -12 -10 -9 -6 4 -8 11 -5 16 9 14 15 11 15 -7z
m30 -74 c12 -8 11 -10 -7 -10 -13 0 -23 5 -23 10 0 13 11 13 30 0z"/>
<path d="M7993 3085 c0 -27 2 -38 4 -22 2 15 2 37 0 50 -2 12 -4 0 -4 -28z"/>
<path d="M7670 3015 c0 -29 -20 -75 -20 -47 0 6 -5 12 -11 12 -6 0 -8 -8 -4
-19 3 -11 1 -22 -5 -26 -7 -4 -9 -18 -6 -31 7 -28 -8 -33 -19 -6 -15 36 -20
-18 -19 -206 1 -152 5 -194 18 -220 15 -29 15 -32 -3 -44 -26 -18 -34 -53 -20
-80 8 -14 13 -74 15 -155 2 -108 0 -133 -12 -133 -16 0 -29 43 -20 66 10 26
-4 60 -25 61 -19 2 -19 -3 -14 -133 l6 -134 -25 0 c-20 0 -26 5 -27 23 -1 25
-5 48 -15 91 -5 22 -3 32 10 42 13 9 16 23 14 56 l-3 43 -14 -45 c-8 -25 -17
-49 -21 -55 -16 -25 -9 -108 11 -136 13 -19 21 -47 22 -79 1 -27 8 -55 15 -62
6 -6 12 -18 12 -25 0 -7 5 -13 10 -13 6 0 10 -7 10 -16 0 -8 -4 -13 -9 -10
-13 9 -20 -31 -8 -43 8 -8 8 -11 -1 -11 -6 0 -9 -6 -6 -14 3 -8 -4 -16 -20
-20 -24 -6 -24 -7 -24 -117 1 -81 -2 -113 -12 -119 -7 -4 -10 -17 -7 -29 3
-12 1 -21 -3 -21 -4 0 -6 -9 -3 -20 3 -11 0 -27 -7 -35 -10 -12 -10 -15 0 -15
8 0 10 -3 7 -6 -4 -4 -13 -1 -22 6 -8 7 -22 10 -30 6 -8 -3 -15 -2 -16 2 -2
23 -10 56 -14 60 -3 3 5 21 17 40 14 22 17 36 10 41 -6 3 -14 31 -18 61 l-8
55 -12 -40 c-6 -23 -8 -45 -3 -51 5 -6 2 -33 -7 -65 -11 -36 -13 -54 -5 -57 7
-2 4 -13 -7 -29 -13 -20 -14 -27 -4 -31 10 -3 10 -7 1 -18 -6 -8 -9 -24 -5
-36 5 -21 -9 -132 -21 -168 -3 -8 -7 -28 -9 -45 -2 -16 -6 -52 -10 -80 -5 -44
-8 -91 -15 -242 -1 -24 -6 -40 -11 -37 -5 4 -9 -36 -8 -98 1 -56 1 -123 1
-148 -1 -25 3 -46 9 -48 16 -6 12 -32 -10 -59 -21 -27 -28 -83 -10 -83 13 0
13 -34 -2 -82 -8 -28 -9 -45 -1 -57 6 -9 8 -31 5 -49 l-4 -32 302 0 c248 0
301 2 297 13 -3 8 -1 20 3 27 7 11 11 11 24 1 9 -8 16 -20 16 -27 0 -10 14
-14 48 -14 l48 0 17 48 c19 51 25 268 8 258 -5 -3 -7 -15 -4 -26 3 -12 0 -20
-7 -20 -9 0 -11 11 -6 38 3 20 6 54 6 75 0 23 4 36 10 32 12 -8 14 394 1 413
-4 8 -12 14 -17 15 -15 3 -6 81 11 93 13 10 15 47 15 279 -1 245 -3 270 -20
292 -19 24 -17 58 5 66 19 8 19 136 0 173 -8 16 -14 38 -14 49 1 17 2 16 10
-5 6 -20 8 -15 6 23 -1 26 1 47 5 47 5 0 8 7 8 15 0 8 -8 15 -19 15 -10 0 -24
7 -31 15 -18 22 -32 18 -25 -6 5 -14 3 -20 -5 -17 -6 2 -10 6 -8 9 2 3 -3 13
-10 21 -10 12 -10 17 -1 20 7 2 -3 14 -22 25 -22 15 -37 19 -45 12 -17 -14
-22 17 -14 79 7 58 6 62 -26 62 -26 0 -32 13 -24 59 7 45 26 50 34 9 5 -26 9
-30 16 -18 5 8 10 22 10 31 0 9 11 21 25 27 30 14 32 28 5 35 -13 3 -18 1 -13
-5 3 -7 1 -8 -6 -4 -20 13 -41 65 -39 95 1 20 -6 39 -20 54 -23 24 -29 53 -12
59 15 5 18 84 3 80 -7 -1 -13 7 -13 19 0 11 4 17 10 14 6 -4 7 1 3 11 -4 11
-8 13 -11 6 -8 -26 -28 -10 -38 31 -6 23 -14 50 -19 60 -6 14 -2 20 14 24 21
5 31 43 11 43 -5 0 -10 7 -10 15 0 8 5 15 11 15 5 0 7 5 4 10 -11 18 -23 10
-27 -20 -2 -16 0 -31 6 -33 6 -3 8 -8 4 -12 -17 -18 -22 12 -26 157 -2 84 -8
159 -12 168 -7 11 -10 7 -10 -15z m-10 -171 c0 -2 -10 -14 -21 -25 -17 -17
-23 -18 -29 -8 -13 20 7 48 30 42 11 -3 20 -7 20 -9z m-23 -141 c1 -41 -1 -52
-7 -38 -11 25 -13 95 -2 95 4 0 8 -26 9 -57z m123 -408 c-6 -30 -8 -33 -9 -13
-1 25 8 62 14 56 2 -2 -1 -21 -5 -43z m-56 -40 c3 -9 0 -15 -9 -15 -8 0 -15 7
-15 15 0 8 4 15 9 15 5 0 11 -7 15 -15z m76 -35 c0 -11 -4 -20 -10 -20 -5 0
-10 9 -10 20 0 11 5 20 10 20 6 0 10 -9 10 -20z m-99 -141 c-9 -22 -10 -22
-10 -3 -1 11 2 24 6 27 12 12 14 0 4 -24z m117 -21 c-5 -32 -28 -35 -28 -4 0
17 5 26 16 26 10 0 14 -7 12 -22z m-180 -92 c12 -3 12 -4 -3 -3 -11 1 -20 9
-21 17 0 8 1 10 3 3 2 -6 12 -14 21 -17z m178 -22 c-4 -13 -10 -24 -16 -24
-15 0 -22 38 -9 61 10 20 12 21 21 5 5 -10 7 -28 4 -42z m-206 -9 c0 -8 4 -15
10 -15 5 0 1 -13 -8 -30 -10 -17 -20 -26 -26 -20 -6 6 -5 14 2 23 6 7 9 23 5
35 -3 13 -1 22 6 22 6 0 11 -7 11 -15z m105 -42 c-4 -27 -7 -61 -7 -78 0 -25
-1 -27 -8 -10 -8 19 -9 19 -9 -2 -2 -38 -21 -37 -21 1 0 23 5 36 13 36 9 0 12
15 11 50 -2 40 1 50 13 50 13 0 14 -8 8 -47z m-168 -15 c-3 -8 -6 -5 -6 6 -1
11 2 17 5 13 3 -3 4 -12 1 -19z m353 -1 c0 -13 5 -28 11 -34 12 -12 -13 -83
-30 -83 -9 0 -19 93 -13 124 5 25 32 19 32 -7z m-263 -69 c-3 -7 -5 -2 -5 12
0 14 2 19 5 13 2 -7 2 -19 0 -25z m215 7 c4 -20 3 -23 -8 -14 -16 13 -19 39
-5 39 5 0 11 -11 13 -25z m-232 -26 c0 -20 -16 -24 -39 -10 -12 8 -12 12 -2
25 16 19 41 10 41 -15z m185 -12 c15 20 19 18 29 -14 5 -16 2 -25 -14 -33 -17
-9 -22 -7 -30 15 -6 15 -9 32 -9 38 1 7 3 4 6 -6 5 -18 5 -18 18 0z m121 -92
c-2 -11 2 -38 9 -60 14 -38 9 -54 -16 -55 -19 0 -32 135 -17 164 11 20 11 20
20 -4 5 -14 7 -34 4 -45z m-236 15 c0 -11 -4 -20 -9 -20 -5 0 -7 9 -4 20 3 11
7 20 9 20 2 0 4 -9 4 -20z m97 -12 c-3 -8 -6 -5 -6 6 -1 11 2 17 5 13 3 -3 4
-12 1 -19z m53 2 c0 -5 -4 -10 -10 -10 -5 0 -10 5 -10 10 0 6 5 10 10 10 6 0
10 -4 10 -10z m-211 -157 c-6 -40 -7 -83 -3 -95 6 -20 5 -21 -9 -6 -9 9 -17
35 -18 59 0 24 -3 58 -6 76 -5 30 -8 32 -44 31 -22 0 -43 3 -46 6 -4 4 6 6 23
6 51 -2 94 15 95 39 0 9 5 3 10 -14 6 -19 5 -57 -2 -102z m248 95 c-3 -8 -6
-5 -6 6 -1 11 2 17 5 13 3 -3 4 -12 1 -19z m-37 -83 c0 -33 -2 -35 -20 -25
-30 16 -26 60 7 60 8 0 13 -13 13 -35z m-263 -17 c-3 -8 -6 -5 -6 6 -1 11 2
17 5 13 3 -3 4 -12 1 -19z m241 -37 c3 -8 -1 -12 -9 -9 -7 2 -15 10 -17 17 -3
8 1 12 9 9 7 -2 15 -10 17 -17z m167 -50 c-3 -6 -11 -11 -16 -11 -5 0 -4 6 3
14 14 16 24 13 13 -3z m-278 -53 c-3 -8 -6 -5 -6 6 -1 11 2 17 5 13 3 -3 4
-12 1 -19z m128 12 c3 -5 1 -10 -4 -10 -6 0 -11 5 -11 10 0 6 2 10 4 10 3 0 8
-4 11 -10z m-212 -13 c4 3 7 -1 7 -10 0 -9 -5 -17 -10 -17 -6 0 -8 -11 -4 -25
4 -18 1 -27 -11 -31 -28 -11 -38 9 -25 55 9 33 14 40 24 32 7 -6 16 -8 19 -4z
m374 -19 c-3 -8 -6 -5 -6 6 -1 11 2 17 5 13 3 -3 4 -12 1 -19z m-187 -4 c0 -8
-5 -12 -10 -9 -6 4 -8 11 -5 16 9 14 15 11 15 -7z m40 6 c0 -5 -5 -10 -11 -10
-5 0 -7 5 -4 10 3 6 8 10 11 10 2 0 4 -4 4 -10z m-320 -40 c-20 -13 -53 -13
-45 0 3 6 18 10 33 10 21 0 24 -2 12 -10z m-99 -109 c2 -61 -16 -90 -27 -46
-4 16 -2 36 5 46 6 10 11 29 11 41 0 45 10 9 11 -41z m106 23 c-3 -3 -12 -4
-19 -1 -8 3 -5 6 6 6 11 1 17 -2 13 -5z m333 2 c0 -3 -4 -8 -10 -11 -5 -3 -10
-1 -10 4 0 6 5 11 10 11 6 0 10 -2 10 -4z m20 -57 c0 -14 -17 -10 -23 5 -4 10
-1 13 9 9 7 -3 14 -9 14 -14z m42 -45 c2 -19 -1 -43 -8 -52 -10 -13 -13 -10
-19 26 -3 23 -4 46 0 52 12 20 23 10 27 -26z m-52 16 c0 -5 -5 -10 -11 -10 -5
0 -7 5 -4 10 3 6 8 10 11 10 2 0 4 -4 4 -10z m-283 -77 c-3 -10 -5 -2 -5 17 0
19 2 27 5 18 2 -10 2 -26 0 -35z m-140 5 c-3 -8 -6 -5 -6 6 -1 11 2 17 5 13 3
-3 4 -12 1 -19z m145 -90 c-9 -9 -12 -7 -12 12 0 19 3 21 12 12 9 -9 9 -15 0
-24z m238 -68 c6 0 8 -5 5 -11 -5 -7 -14 -3 -27 10 -10 12 -16 26 -12 33 5 7
10 4 15 -10 5 -12 13 -22 19 -22z m50 -56 c0 -2 -7 -4 -15 -4 -8 0 -15 4 -15
10 0 5 7 7 15 4 8 -4 15 -8 15 -10z m-70 -15 c0 -6 -4 -7 -10 -4 -5 3 -10 11
-10 16 0 6 5 7 10 4 6 -3 10 -11 10 -16z m-270 -9 c0 -5 -4 -10 -10 -10 -5 0
-10 5 -10 10 0 6 5 10 10 10 6 0 10 -4 10 -10z m-95 -31 c8 -23 1 -34 -14 -24
-13 8 -15 45 -2 45 5 0 13 -9 16 -21z m375 17 c0 -3 -4 -8 -10 -11 -5 -3 -10
-1 -10 4 0 6 5 11 10 11 6 0 10 -2 10 -4z m-540 -210 c0 -8 -4 -18 -10 -21 -5
-3 -10 3 -10 14 0 12 5 21 10 21 6 0 10 -6 10 -14z m-10 -196 c0 -5 -5 -10
-11 -10 -5 0 -7 5 -4 10 3 6 8 10 11 10 2 0 4 -4 4 -10z m527 -42 c-3 -8 -6
-5 -6 6 -1 11 2 17 5 13 3 -3 4 -12 1 -19z m-210 -45 c-3 -10 -5 -2 -5 17 0
19 2 27 5 18 2 -10 2 -26 0 -35z m210 5 c-3 -8 -6 -5 -6 6 -1 11 2 17 5 13 3
-3 4 -12 1 -19z m-210 -95 c-3 -10 -5 -2 -5 17 0 19 2 27 5 18 2 -10 2 -26 0
-35z m-187 16 c0 -6 -4 -7 -10 -4 -5 3 -10 11 -10 16 0 6 5 7 10 4 6 -3 10
-11 10 -16z m-33 -21 c-3 -8 -6 -5 -6 6 -1 11 2 17 5 13 3 -3 4 -12 1 -19z
m220 -55 c-3 -10 -5 -4 -5 12 0 17 2 24 5 18 2 -7 2 -21 0 -30z m-177 2 c0 -8
-7 -15 -15 -15 -16 0 -20 12 -8 23 11 12 23 8 23 -8z m136 -30 c-6 -17 -26
-20 -26 -4 0 5 5 7 10 4 6 -3 10 4 11 17 0 13 3 17 6 10 3 -7 2 -19 -1 -27z
m41 -27 c-3 -8 -6 -5 -6 6 -1 11 2 17 5 13 3 -3 4 -12 1 -19z m340 -110 c-3
-8 -6 -5 -6 6 -1 11 2 17 5 13 3 -3 4 -12 1 -19z"/>
<path d="M6455 2523 c-11 -26 -10 -73 1 -73 5 0 9 10 9 22 0 12 6 23 13 26 17
5 15 42 -2 42 -8 0 -17 -8 -21 -17z"/>
<path d="M7810 2490 c0 -5 5 -10 11 -10 5 0 7 5 4 10 -3 6 -8 10 -11 10 -2 0
-4 -4 -4 -10z"/>
<path d="M7985 2491 c-3 -5 -1 -12 5 -16 5 -3 10 1 10 9 0 18 -6 21 -15 7z"/>
<path d="M6832 2445 c-14 -31 -15 -55 -3 -55 9 0 26 69 18 76 -2 2 -9 -7 -15
-21z"/>
<path d="M6640 2393 c0 -41 14 -36 25 10 6 21 4 27 -9 27 -12 0 -16 -10 -16
-37z"/>
<path d="M6822 2340 c0 -14 2 -19 5 -12 2 6 2 18 0 25 -3 6 -5 1 -5 -13z"/>
<path d="M6625 2290 c3 -5 8 -10 11 -10 2 0 4 5 4 10 0 6 -5 10 -11 10 -5 0
-7 -4 -4 -10z"/>
<path d="M6510 1920 c0 -5 4 -10 9 -10 6 0 13 5 16 10 3 6 -1 10 -9 10 -9 0
-16 -4 -16 -10z"/>
<path d="M6490 1878 c0 -19 2 -20 10 -8 13 19 13 30 0 30 -5 0 -10 -10 -10
-22z"/>
<path d="M6800 1891 c0 -6 5 -13 10 -16 6 -3 10 1 10 9 0 9 -4 16 -10 16 -5 0
-10 -4 -10 -9z"/>
<path d="M6801 1846 c-8 -9 -10 -24 -5 -38 7 -21 8 -20 15 12 9 41 6 46 -10
26z"/>
<path d="M7200 1850 c0 -5 5 -10 10 -10 6 0 10 5 10 10 0 6 -4 10 -10 10 -5 0
-10 -4 -10 -10z"/>
<path d="M7255 1830 c3 -5 8 -10 11 -10 2 0 4 5 4 10 0 6 -5 10 -11 10 -5 0
-7 -4 -4 -10z"/>
<path d="M7197 1824 c-4 -4 -7 -35 -6 -68 0 -34 3 -54 6 -46 3 8 12 19 19 23
8 4 14 20 14 36 0 30 -21 66 -33 55z"/>
<path d="M6969 1764 c-12 -14 -11 -16 5 -13 11 2 21 10 24 17 5 17 -13 15 -29
-4z"/>
<path d="M6410 1756 c0 -9 5 -16 10 -16 6 0 10 4 10 9 0 6 -4 13 -10 16 -5 3
-10 -1 -10 -9z"/>
<path d="M6904 1716 c-6 -17 2 -36 17 -36 12 0 12 37 -1 45 -6 3 -13 -1 -16
-9z"/>
<path d="M6958 1724 c-5 -4 -8 -23 -8 -43 0 -25 3 -32 11 -24 6 6 9 25 7 43
-2 17 -6 28 -10 24z"/>
<path d="M6930 1545 c0 -11 -6 -32 -14 -46 -13 -25 -5 -62 9 -47 14 14 26 91
15 102 -7 7 -10 4 -10 -9z"/>
<path d="M7095 1471 c-3 -5 -1 -12 5 -16 5 -3 10 1 10 9 0 18 -6 21 -15 7z"/>
<path d="M6902 1410 c-11 -30 -2 -47 18 -35 12 8 13 65 1 65 -5 0 -14 -13 -19
-30z"/>
<path d="M7081 1278 c-14 -38 -22 -173 -9 -160 6 6 12 28 13 49 1 21 6 59 10
86 8 49 0 63 -14 25z"/>
<path d="M7182 1070 c0 -14 2 -19 5 -12 2 6 2 18 0 25 -3 6 -5 1 -5 -13z"/>
<path d="M6639 1068 c-7 -29 -5 -36 7 -31 16 6 18 19 4 28 -5 3 -10 5 -11 3z"/>
<path d="M1716 1034 c-3 -9 -3 -21 1 -27 4 -7 8 -19 8 -27 0 -8 9 -16 20 -18
17 -4 18 -2 6 12 -11 13 -11 19 -1 31 15 18 6 45 -14 45 -7 0 -17 -7 -20 -16z"/>
<path d="M7060 1030 c0 -19 3 -21 12 -12 9 9 9 15 0 24 -9 9 -12 7 -12 -12z"/>
<path d="M6810 964 c-12 -32 -13 -102 -1 -88 9 10 23 114 15 114 -2 0 -9 -12
-14 -26z"/>
<path d="M6657 933 c-8 -13 0 -78 9 -78 10 0 13 74 3 81 -4 2 -10 1 -12 -3z"/>
<path d="M7038 913 c0 -16 0 -40 1 -54 1 -14 -5 -32 -14 -39 -9 -7 -15 -28
-15 -51 0 -45 -17 -61 -26 -24 -11 45 -29 21 -35 -47 -3 -37 -13 -78 -23 -93
-19 -28 -31 -165 -15 -165 5 0 9 -4 9 -10 0 -5 -6 -7 -12 -5 -10 4 -14 -15
-15 -72 -2 -42 -8 -80 -14 -83 -6 -4 -9 -22 -7 -41 4 -34 4 -34 15 -9 7 14 12
19 12 13 1 -7 5 -13 11 -13 5 0 9 15 8 33 -1 19 2 39 6 45 10 16 36 15 37 0 0
-7 2 -23 3 -36 2 -12 -1 -22 -5 -22 -4 0 -5 -9 -2 -20 5 -19 32 -29 34 -12 0
4 2 22 4 40 2 22 -2 35 -11 39 -11 4 -11 9 0 31 7 15 25 74 39 132 22 88 27
137 32 298 4 129 2 192 -5 192 -5 0 -11 -12 -12 -27z m-48 -320 c0 -16 -7 -37
-15 -47 -14 -18 -15 -16 -15 27 0 35 4 47 15 47 10 0 15 -10 15 -27z m-22
-113 c0 -22 -5 -40 -10 -40 -5 0 -6 -10 -2 -22 10 -32 13 -98 4 -98 -8 0 -20
74 -20 121 0 24 18 79 26 79 2 0 2 -18 2 -40z"/>
<path d="M7987 893 c-11 -10 -8 -43 3 -43 6 0 10 11 10 25 0 26 -2 29 -13 18z"/>
<path d="M6801 843 c-1 -6 -8 -19 -17 -27 -8 -9 -14 -22 -12 -28 3 -8 12 -1
22 14 10 15 16 33 13 40 -4 9 -6 9 -6 1z"/>
<path d="M6962 808 c7 -19 38 -22 38 -4 0 10 -9 16 -21 16 -12 0 -19 -5 -17
-12z"/>
<path d="M7204 753 c2 -21 4 -44 5 -51 0 -7 5 -11 9 -8 13 8 9 89 -5 93 -9 3
-11 -7 -9 -34z"/>
<path d="M4395 710 c-3 -5 1 -10 9 -10 8 0 18 5 21 10 3 6 -1 10 -9 10 -8 0
-18 -4 -21 -10z"/>
<path d="M6740 693 c0 -5 5 -15 10 -23 8 -12 10 -11 10 8 0 12 -4 22 -10 22
-5 0 -10 -3 -10 -7z"/>
<path d="M7186 633 c9 -38 14 -42 14 -10 0 14 -5 29 -10 32 -7 4 -8 -3 -4 -22z"/>
<path d="M6750 631 c0 -6 4 -13 10 -16 6 -3 7 1 4 9 -7 18 -14 21 -14 7z"/>
<path d="M7178 458 c-3 -51 -2 -96 1 -100 4 -4 8 4 9 19 1 15 6 31 11 36 10
10 3 117 -9 130 -4 5 -10 -33 -12 -85z"/>
<path d="M6890 157 c0 -20 4 -38 10 -42 5 -3 7 9 4 32 -6 49 -14 55 -14 10z"/>
<path d="M0 41 l0 -41 282 0 c155 0 279 2 277 4 -2 2 -49 14 -104 26 -95 22
-172 31 -367 46 l-88 7 0 -42z"/>
<path d="M7170 43 c0 -24 5 -43 10 -43 13 0 13 50 0 70 -7 11 -10 4 -10 -27z"/>
<path d="M6901 44 c0 -11 3 -14 6 -6 3 7 2 16 -1 19 -3 4 -6 -2 -5 -13z"/>
<path d="M4055 20 c3 -5 8 -10 11 -10 2 0 4 5 4 10 0 6 -5 10 -11 10 -5 0 -7
-4 -4 -10z"/>
</g>
</svg>
